<svg xmlns="http://www.w3.org/2000/svg">
<defs>
    <path id="athis" d="M4.8 15.4l-.5-.1q-.2-.1-.2-.4v-2.6q-.2-.2-1-.3-.6-.2-1.3-.2-.2.3-.3 1v.3l-.3 1.3-.3.8q-.8 0-.9-.4.2-.3.5-1.9L1 9.3 2 5l.8-3Q3.2.5 3.6.5t.6.2l.4 3.8.4 4 .2 3 .2 3.2q0 .7-.6.7zm-1-4.3H4L4 8.9l-.4-5.4v-.2q-.2.2-.6 1.8l-.6 3.4L2 11q.8.2 1.7.2zM12.7 11.8l-1.4-5.5q-1-3.7-1.6-5.1Q9.3.3 9 .3q-.4 0-.4 1V3.2L8.4 5v5.4l.2 3.3v.8l-.1.6q0 .3.4.3l.5-.1q.2-.1.2-.3l-.1-2.8-.1-2.8V2.9q1 4.4 2.3 8.7 1.2 4 1.7 4l.4-.2.1-.6v-6V5l.2-3.6V.8q0-.8-.5-.8t-.6.5V13.2H13zM22 15.4l-.5-.1q-.2-.1-.2-.4v-2.6q-.2-.2-1-.3-.6-.2-1.3-.2-.2.3-.3 1v.3l-.4 1.3q0 .5-.3.8-.7 0-.8-.4.2-.3.5-1.9l.6-3.6.8-4.4.8-3q.4-1.4.9-1.4.4 0 .6.2l.4 3.8.4 4 .2 3 .2 3.2q0 .7-.7.7zM20.8 11h.4l-.2-2.2-.5-5.4v-.2l-.5 1.8-.6 3.4L19 11l1.8.2zM27 13.8V8.6v-.2-.2l-.1-.3V4.4L26.6.8l-.2-.4-.4-.2q-.2 0-.3.2-.2 0-.2.2l.2 6.8.2 6.7v.4l-.1.5.2.4q.2.2.5.2t.5-.2h1.3l.4-.1.1-.4q0-.3-.4-.6H27zM33.3 5.7l-.2-.9-.3-1.3-.3-1.6-.4-1q-.2-.4-.4-.4h-.3l-.2.3.2 1.7.6 1.8.5 1.9.2 1.7.2 1.7.2 1.7v4.2l.4.1.5-.1.2-.4v-.5-.5-.5L34 11 34 8.4V8v-.4-.3q0-1.1.5-3.3.5-2.2.5-3.3 0-.3-.5-.3-.3 0-.5.5L33.7 2 33.4 5l-.1.8zM39.2 3l.1-.8q.1-.4.4-.7.3-.3.6-.3.3.2.8.2l.3-.5q-.1-.3-.5-.5l-.6-.2q-.8 0-1.3.5-.5.4-.7 1l-.2 1.4.2 1.8.5 1.4.8 1.5.3.6.7 1.8q.3 1 .3 1.8l-.1.8-.3 1-.5.8q-.3.3-.7.3l-.5-.1-.5-.2q-.3 0-.4.2v.4l.2.4q.5.2 1.2.2t1.2-.3q.6-.4.9-1l.5-1.1.1-1.3-.2-1.8-.5-1.6-1.2-2.5-.2-.2-.5-1.5-.2-1.5zM48.9 14.8q0-.5-1.1-.5h-1.1v-6q0-.2.4-.2h.5l.3-.1.2-.4q0-.3-.2-.4l-.4-.2-.6.1h-.3v-1-1.2-1.6-1.6h.7q.9 0 .9-.6 0-.3-.3-.5l-.6-.2-.7.1-.8.1-.5.7.2 1 .1 1V15q0 .4.3.5h.3l.4.1H47.9l.6-.2q.3-.1.4-.4zM61.6 5.2V3.9l-.2-2.4H62.3l.5-.1.1-.4-.2-.4q-.1-.2-.4-.2h-.8l-2.3.4q-.5.2-.5.4 0 .3.2.4l.4.2h.6l.5-.1q.2.4.2 1.8v4.8l.2 3V13l-.1 1.5.1.7q.2.3.5.3.6 0 .6-1l-.1-1.7V11l-.2-2.3V6.5zM65.7.8v1.8q0 3.7.2 6.2 0 2 .2 3.4 0 1.4.3 2.2.2 1 .4 1t.3-.2l.2-.4-.2-3.3-.2-3.4 1.2-.1h.7l.1 7q0 .3.2.5 0 .2.3.2t.4-.2q.2-.2.2-.5l-.2-6.5-.2-6.5v-.5-.4q0-.2-.2-.3 0-.2-.3-.3h-.4v6.9l-1 .1h-.9v-.4-.4-.4-2l-.1-2V.8l-.3-.2-.4-.1q-.3 0-.3.3zM76.7 14.9q0-.7-.9-.7h-.4v-.8l-.2-5.7-.2-5.8v-.3l.3-.1h.4q.2 0 .3-.2l.1-.3-.1-.4-.4-.2-1.4.2q-.5 0-.8.2-.3.2-.3.4 0 .5.5.5h.4v3l.2 4.6.2 4.6v.3l-.3.1H74h-.2q-.6 0-.6.5 0 .6 1.7.6h1.4l.5-.4zM81.2 3v-.8l.5-.7q.2-.3.6-.3.3.2.8.2l.3-.5q-.1-.3-.5-.5-.3-.2-.7-.2-.7 0-1.2.5-.5.4-.7 1-.3.7-.3 1.4 0 .9.3 1.8l.5 1.4.8 1.5.3.6.7 1.8q.3 1 .3 1.8l-.1.8-.3 1-.5.8q-.3.3-.7.3l-.5-.1-.6-.2q-.2 0-.3.2l-.1.4q0 .2.3.4.5.2 1.2.2t1.2-.3q.6-.4.9-1l.5-1.1.1-1.3-.2-1.8-.5-1.6L82 6.2l-.2-.2-.5-1.5-.2-1.5z"/>
    <path id="artb" d="M4.8 15.3h-.5Q4 15 4 14.7v-2.5q-.2-.2-1-.4l-1.3-.2-.3 1v.4l-.3 1.2-.3.8q-.8 0-.9-.4.2-.2.5-1.8L1 9.3 2 4.9l.8-3Q3.2.4 3.6.4l.6.1.4 3.8.4 4.1.2 3 .2 3.2q0 .6-.6.6zm-1-4.2H4L4 8.8l-.4-5.5v-.1q-.2.1-.6 1.7l-.6 3.5-.3 2.4q.8.2 1.7.2zM9.6 7l.7 2.5.9 3.1q.3 1.3.3 2.4.4.5.8.5.3 0 .4-.3V15v-.3l-.5-1.8-.7-2.2-.6-2-.2-1.8.2-.5.2-.6.4-1 .1-1.2v-.9l-.4-.9-.5-.7q-.3-.4-.7-.6-.4-.2-.9-.2l-.4.1-.1.4v14.5l.4.2q.3 0 .5-.2v-.5zm.6-1.6l-.7.8v-1-2l.1-2q.2 0 .4.3l.3.6.2 1.3v.3zM18 5.1V4 1.4h1.3l.2-.4q0-.3-.2-.4-.2-.2-.5-.2H18q-1.6.1-2.3.4-.5.1-.5.4l.2.4.4.1H17q.2.3.2 1.8v1.7l.1 3 .1 3.1V13l-.1 1.6.1.7q.2.3.5.3.6 0 .6-1v-1.8l-.2-1.7V8.7L18 6.4zM26.7 11.7q0-1.4-.6-2.6-.5-1.3-1.7-2 .5-.3.8-.9.4-.5.6-1.2l.2-1.2q0-1-.3-1.7-.4-.8-1-1.2Q24 .5 23 .5l-.4.2-.2.4v.4l-.1.5v4.1l.1 4V15q0 .5.9.5.7 0 1.3-.3l1-.7.6-1q.5-1 .5-1.8zm-3-10l.6.2.6.6.2.8V4l-.2.6-.6 1.3q-.1.4-.4.6l-.4.3V4.6l-.1-2.3q0-.7.3-.7zm2 10q0 .8-.3 1.4l-.7 1q-.5.3-1.2.4V7.9h.6l.2.1q.2 0 .4.3l.4.7q.3.4.4 1.1l.1 1.7zM32.8 14.8q0-.7-.8-.7h-.4v-.7l-.2-5.8Q31 3.8 31 1.8l.1-.3H31.8l.4-.2.1-.4-.2-.4-.4-.1-1.4.1-.7.3q-.3.2-.3.4 0 .5.4.5l.5-.1v3l.2 4.7.2 4.5v.4H30 30q-.6 0-.6.5 0 .6 1.7.6h1.3l.5-.4zM38.7 5.1V4l-.1-2.5h1.3l.2-.4q0-.3-.2-.4l-.4-.2h-.9q-1.6.1-2.3.4-.5.1-.5.4l.2.4.5.1h1.1l.1 1.8v1.7l.1 3 .2 3.1-.1 1.6v2.3q.3.3.6.3.5 0 .5-1v-1.8l-.1-1.7-.1-2.3-.1-2.3zM44 7l.8 2.5.9 3.1Q46 14 46 15q.4.5.7.5.4 0 .5-.3V15v-.3l-.6-1.8-.7-2.2-.5-2-.2-1.8.2-.5.2-.6.4-1 .1-1.2v-.9l-.4-.9-.5-.7q-.3-.4-.7-.6-.4-.2-.9-.2l-.4.1-.1.4v14.5l.4.2q.3 0 .5-.2v-.5zm.7-1.6l-.7.8v-1-2l.1-2q.2 0 .4.3l.3.6.2 1.3v.3zM54.3 15.3H54q-.2-.2-.2-.5v-2.5q-.2-.2-1-.4l-1.3-.2-.3 1v.4l-.3 1.2-.4.8q-.7 0-.8-.4.2-.2.5-1.8l.6-3.6.8-4.4.8-3q.4-1.4.9-1.4l.6.1.4 3.8.4 4.1.2 3 .2 3.2q0 .6-.7.6zm-1-4.2h.4l-.2-2.2-.4-5.5v-.1q-.2.1-.6 1.7L52 8.5l-.4 2.4 1.8.2zM62.9 15.3q.1.4.6.4l.4-.1.1-.4-.2-1.8-.2-1.7q0-.5-.2-.8-.2-.3-.6-.3l-1 .2q-.3 0-.5.2-.2.1-.2.3 0 .5.7.5h.7q.2.2.2.9l.1 1.3q-.5.9-1.4.9-.5 0-.8-.2-.4-.2-.6-.5l-.5-.8-.3-1-.1-1v-1-1-1.2-1.9-1.1l.2-1.3q0-.6.2-1.1l.4-1q.2-.4.5-.6.3-.3.7-.3h.3l.2.1.4-.1q.2-.1.2-.3 0-.6-.9-.6l-.9.1-.7.5q-.4.2-.6.6l-.5.8-.3 1-.3 2v5.4l.1 1 .2 1.2.3 1 .5 1q.2.4.5.6l.8.5 1 .2.5-.1q.2 0 .5-.3l.5-.2zM70.2 14.8q0-.5-1-.5H68v-6q.1-.2.4-.2h.5l.4-.2.1-.4-.1-.4-.5-.1h-.6l-.3.1v-1l.1-1.2V3.2l-.1-1.6h.7q1 0 1-.6 0-.2-.4-.4-.2-.2-.6-.2H68l-.7.2q-.2.1-.5.7l.1 1 .1 1v11.5q0 .5.4.6h1.9l.6-.1.4-.4z"/>
    <path id="bandb" d="M4.4 11.6q0-1.5-.6-2.7-.5-1.2-1.7-2 .5-.3.8-.9.4-.5.6-1.2l.2-1.2q0-1-.3-1.7-.4-.7-1-1.1Q1.6.4.6.4L.3.5.1.9v.5l-.1.5v4l.1 4v5q0 .4.9.4.7 0 1.3-.3l1-.7.6-1q.5-1 .5-1.7zm-3-10.1l.6.2q.4.3.6.7l.2.8v.7l-.2.5L2 5.8q-.1.3-.4.5-.2.3-.5.3V4.4 2.1q0-.6.3-.6zm2 10.1q0 .7-.3 1.3l-.7 1q-.5.3-1.2.4V7.8H2l.4.4.4.6.4 1.2.1 1.6zM7.2 1.3v6.9l.2 1.9.3 1.7.5 1.5.6 1.2q.4.5.9.8l1 .2q.6 0 1-.2.3-.1.5-.4l.3-.8.2-.8v-.9l-.2-5.2-.1-5v-.5l.1-.6V.7L12 .3l-.5.1-.2.4v1.7l.1 1.7v1.2l.2 2 .1 1.8v4.4l-.1.6q0 .3-.2.5l-.5.1q-.5 0-.9-.4l-.7-1.1L9 12l-.2-1.1V9.6l-.3-1V5.2l-.2-3.5Q8.3.3 7.6.3l-.4.2-.1.4.1.4zM17.5 13.6V8.4v-.2-.5l-.2-3.5V.6q0-.2-.3-.4-.1-.2-.4-.2l-.3.1-.2.3.2 6.8.2 6.7v.4l-.1.5.2.4q.2.2.5.2t.5-.2H19l.4-.1.1-.4q0-.3-.4-.6h-1.5zM23.3 13.6V8.4v-.2-.5L23 4.2V.6l-.2-.4q-.2-.2-.5-.2l-.3.1-.1.3.2 6.8.2 6.7-.1.4v.5l.1.4q.2.2.5.2l.6-.2h1.3l.3-.1.2-.4q0-.3-.5-.6h-1.5zM29 2.7V2l.4-.7.6-.4q.3.2.8.2l.4-.4-.5-.5L30 0q-.7 0-1.2.5-.5.4-.8 1L27.8 3q0 .9.3 1.8l.5 1.4.7 1.5.3.6q.5.8.7 1.8.3 1 .3 1.8v.8l-.3 1-.5.8q-.3.3-.7.3l-.5-.1-.6-.2q-.2 0-.3.2-.2.1-.2.4 0 .2.4.4.5.2 1.2.2.6 0 1.2-.3.5-.4.8-1l.5-1.2.2-1.2-.2-1.8q-.2-.9-.6-1.6L29.8 6l-.1-.3q-.4-.6-.6-1.4L29 2.7zM45.1 12.7l.2 2q0 .4.2.5.3.2.7.2.3-.2.3-.6l-.1-1.2-.2-1.2-.1-.6-.1-.6q0-1.3-.4-4.3t-.4-4.5q0-.2-.2-.3-.2-.2-.5-.2h-.7l-.2.7-.1 1.2-.1.8q-.7 4.9-2 10v.2q0 .2.2.3.1.2.4.2l.4-.2q.2-.3.4-1.3.1-1.3.3-1.8l2 .3zm-.2-1.1q-1.4-.1-1.7-.4.2-2 1.1-7l.2 2 .3 2.7v2l.1.7zM54.7 13.4L54 11l-.3-1-1-3.7-1-2.7q-.8-1.6-1.3-1.6-.8.5-.8 1.4v1.8l-.1 1.9V14q0 1.2.7 1.2l.4-.2.1-.5v-.3l-.2-.1V4q.5 1 1.3 3.4 1 2.3 1.6 4.3l.6 2.4.1.5q0 .3.2.4l.4.1.7-.1q.2-.3.3-2.2l.3-4.3V3v-.6q-.2-.2-.5-.2-.5 0-.5.6v.5q0 5.9-.3 10zM59.2 2.8l.1 1.7.1 2v6.2q0 2.6.5 2.6h1.4l1-.6.6-.7.4-.8.3-.8.2-1v-.8-2.2l.1-.5v-.5l-.2-1.5q-.1-.7-.5-1.4l-.8-1.2q-.5-.5-1.2-.8Q60.6 2 60 2q-.3 0-.5.2t-.2.5zm1.5 11l-.1-4.3-.2-4.4q0-1.3.2-2 2.3.2 2.3 6.2v.7l-.1.9-.1.9-.3 1-.4.7q-.2.4-.5.6l-.8.2zM78.5 11.6q0-1.5-.6-2.7-.5-1.2-1.7-2L77 6q.4-.5.6-1.2l.2-1.2q0-1-.3-1.7-.4-.7-1-1.1-.7-.4-1.7-.4l-.4.1q-.2.1-.2.4l-.1.5v4.5l.1 4v5q0 .4.8.4h.1q.7 0 1.3-.3l1-.7.6-1q.5-1 .5-1.7zm-3-10.1l.6.2.5.7q.3.4.3.8v.7l-.2.5-.6 1.4-.4.5q-.2.3-.5.3V4.4 2.1q0-.6.2-.6zm2 10.1q0 .7-.3 1.3-.3.6-.8 1-.4.3-1 .4 0-4-.2-6.5H76.1l.4.4.4.6.4 1.2.1 1.6zM85 14.6q0-.5-1.2-.5h-1v-6q0-.2.3-.2h.5l.4-.1.1-.5L84 7q-.2-.2-.5-.2l-.6.1h-.3V6l.1-1.2V3.1l-.1-1.7h.7q1 0 1-.5 0-.3-.4-.5-.2-.2-.6-.2l-.7.1-.7.1-.5.7.1 1 .1 1v11.6q0 .4.4.5h.3l.3.1H84l.6-.2q.3-.1.4-.4zM92.6 15.2l-.4-.1-.2-.4V12q-.3-.2-1-.3l-1.3-.2q-.2.3-.3 1v.3l-.4 1.3q0 .5-.3.8-.7 0-.8-.4l.5-1.9.6-3.6.8-4.4.8-3q.4-1.4.8-1.4.5 0 .7.2l.4 3.8.4 4 .2 3 .2 3.2q0 .7-.7.7zm-1-4.3h.4l-.2-2.2-.5-5.4V3q-.2.2-.5 1.8l-.6 3.4-.4 2.4 1.8.2zM97.4 6.9l.8 2.5.8 3 .4 2.4q.3.6.7.6.4 0 .4-.3v-.3-.3l-.5-1.8-.7-2.2-.5-2-.2-1.8.2-.5.2-.5.3-1.1.2-1.2-.1-.9-.3-.9-.5-.7q-.3-.4-.7-.5-.4-.2-1-.2h-.3l-.1.4v8.2l-.1 5.8v.2l.1.4.4.1.4-.1.1-.5zm.7-1.7l-.7.8v-.9-2-2q.3 0 .5.3l.3.5.2 1.4v.2zM104.5 2.7l.2-.7q0-.4.3-.7.3-.3.7-.4.3.2.7.2l.4-.4-.5-.5q-.3-.2-.7-.2-.7 0-1.2.5-.5.4-.7 1-.3.7-.3 1.4 0 .9.3 1.8l.5 1.4.8 1.5.3.6.7 1.8.2 1.8v.8l-.3 1-.5.8q-.3.3-.7.3l-.5-.1-.6-.2q-.2 0-.3.2l-.1.4q0 .2.3.4.5.2 1.2.2t1.2-.3q.5-.4.9-1 .3-.5.4-1.2l.2-1.2-.2-1.8-.5-1.6-1.3-2.5-.1-.3-.6-1.4-.2-1.6z"/>
    <path id="ewhizz" d="M3.6 14.8q0-.5-1.2-.5h-1v-6q0-.2.3-.2h.5q.3 0 .4-.2l.1-.4-.1-.4-.4-.1h-.7l-.3.1v-1l.1-1.2V3.3l-.1-1.7H2q.9 0 .9-.6 0-.2-.3-.4L2 .4h-.8L.5.7q-.2.1-.5.7l.1 1 .2 1v11.5q0 .5.3.6h1.9l.6-.1.5-.4zM11.7 13.8l-.7.3q-.5.4-.8.4-.9 0-1.3-.8l-.4-.8-.3-1-.2-1.1V9.7l-.1-2.1V7v-.7l.2-.7V5v-.6-.7-.6-.5l.3-.5.3-.4q.5-.3 1.3-.3h.2l.3.2h.8l.2-.4q0-.3-.2-.5l-.6-.3-.6-.1q-.9 0-1.6.3-.7.3-1.1 1Q7 2 7 2.8v.6L7 5.4v5.5l.3 1.4.4 1.4.5 1q.3.5.8.7.4.3 1 .3h.7l.6-.2.6-.3.4-.5.1-.6q-.3-.3-.6-.3zM17.8 0q-.4 0-.7.2l-.6.5-.3.7q-.3.8-.4 1.8l-.1 2.1v3.3l.1 1.6q0 .8.2 1.5l.4 1.6.5 1.3.7 1q.4.3 1 .3.5 0 1-.5.4-.4.6-1 .3-.6.3-1.1V11.9l.2-1.2V8.3 5.6l-.1-1.3-.3-1.3-.3-1.2q-.2-.5-.6-.9-.3-.4-.7-.6-.4-.2-1-.2zm0 1.1q.4 0 .7.3.3.2.5.8.4 1 .6 2.4l.2 2.6v3.2l-.2 2q0 1-.3 1.7t-.7.7q-.4 0-.8-.7-.4-.6-.6-1.5l-.4-2.2-.2-3.3V5.7l.2-2q0-1 .3-1.8T18 1zM29.6 15l.2-3.4.5-3.6.6-3.7L31 1q.2-.2.2-.5 0-.2-.2-.3l-.4-.2q-.4 0-.6.2l-.1.6-.2 3-.4 4Q29 10 29 10.8l-.6-2.5-.6-3.1q-.3-1.3-.3-2.5v-.3q0-.5-.7-.5-.2 0-.3.2l-.2.4v2l-.3 2-.2 2.2-.2 1.7-.3-2.6v-.4q-.3-2.9-.7-5-.3-2-.8-2-.4 0-.7.5.2.3.6 3.3l.9 6.1.4 3.7q0 1.5.7 1.5l.4-.1.2-.4v-2.9l.3-2.4.4-3 .2 1.2.3 2.3q.6 3.3 1 4.5.3.8.5.8.3 0 .4-.2.2-.1.2-.5zM33.8.8v1.7l.1 6.3.2 3.4.3 2.2q.2 1 .5 1 .2 0 .3-.2l.1-.4-.1-3.4-.2-3.3q.3-.2 1.2-.2l.6.1q.2 3.2.2 7l.1.5q.1.2.4.2.2 0 .4-.3.2-.2.2-.5l-.2-6.5-.2-6.5v-.4V1l-.2-.4-.3-.2h-.5V4.1l.1 3.2h-1l-1 .2V7v-.3-.4-2-2V.7q0-.2-.3-.3H34q-.3 0-.3.3zM44.7 14.8q0-.7-.8-.7h-.4v-.7q0-2-.3-5.8L43 1.8v-.3h.7l.4-.2V.9.5l-.5-.1-1.4.1q-.5.1-.7.3-.3.2-.3.4 0 .5.4.5l.5-.1v3.1l.2 4.6.2 4.5v.4l-.3.1h-.4q-.6 0-.6.4 0 .6 1.7.6h1.3l.5-.4zM49.1 14.5Q51.3 6 51.3.8l-.1-.4-.4-.1h-1l-.9.2h-.5l-.3.2v.1q0 .7 1 .7h.5l.7-.1q0 1.2-.4 4-.4 3.2-1 6-.6 3-1 3.7.2.4.6.4h2.4l.3-.3V15q0-.6-1-.6H49zM55.7 14.5Q58 6 58 .8l-.1-.4-.4-.1h-1l-.9.2H55l-.3.2v.1q0 .7 1 .7h.5l.7-.1q0 1.2-.4 4-.4 3.2-1 6-.6 3-1 3.7.2.4.6.4h2.4l.3-.3V15q0-.6-1-.6h-1.1z"/>
    <path id="elens" d="M3.6 14.8q0-.5-1.2-.5h-1v-6q0-.2.3-.2h.5l.4-.1.1-.4-.1-.4-.4-.2-.7.1h-.3v-1l.1-1.2V3.3l-.1-1.6H2q.9 0 .9-.6 0-.3-.3-.5L2 .4l-.8.1-.7.1-.5.7.1 1 .2 1V15q0 .4.3.5h.3l.4.1h1.2l.6-.2q.3-.1.5-.4zM11.7 13.8l-.7.3q-.5.4-.8.4-.9 0-1.3-.7l-.4-.8-.3-1-.2-1.2v-1l-.1-2.2v-.5-.7l.2-.6V5v-.7-.6V3v-.5l.3-.5.3-.4q.5-.3 1.3-.3h.2q0 .2.3.2l.4.1.4-.1q.2-.1.2-.3 0-.3-.2-.5-.2-.3-.6-.4l-.6-.1q-.9 0-1.6.3-.7.4-1.1 1Q7 2.2 7 3v.6L7 5.4v5.5l.3 1.5q.1.7.4 1.3.2.7.5 1 .3.5.8.8.4.2 1 .2h.7l.6-.2.6-.3.4-.5.1-.6q-.3-.3-.6-.3zM17.8.1q-.4 0-.7.2l-.6.4-.3.7q-.3.8-.4 1.9l-.1 2v3.4l.1 1.5q0 .8.2 1.5l.4 1.6q.2.8.5 1.3l.7 1q.4.3 1 .3.5 0 1-.4l.6-1q.3-.6.3-1.2V12l.2-1.3V8.3 5.7l-.1-1.3-.3-1.4-.3-1.1-.6-1q-.3-.4-.7-.6-.4-.2-1-.2zm0 1q.4 0 .7.3l.5.8q.4 1 .6 2.4l.2 2.7v3.1q0 1.1-.2 2.1 0 1-.3 1.6-.3.8-.7.8-.4 0-.8-.7t-.6-1.6l-.4-2.2-.2-3.2V7 5.7l.2-2q0-.9.3-1.8.3-.8.8-.8zM25.5 13.8V8.6v-.2-.2l-.1-.3-.1-3.5-.1-3.6-.2-.4-.4-.2q-.2 0-.3.2-.2 0-.2.2l.2 6.8.2 6.7v.4l-.1.5.2.4q.2.2.5.2t.5-.2H27l.4-.1.1-.4q0-.3-.4-.6h-1.5zM33.5 14.8q0-.5-1.1-.5h-1.1v-6q0-.2.4-.2h.5l.3-.1.2-.4q0-.3-.2-.4l-.4-.2-.6.1h-.3v-1-1.2-1.6-1.6h.7q1 0 1-.6 0-.3-.4-.5L32 .4l-.7.1-.8.1-.5.7.2 1 .1 1V15q0 .4.3.5h.3l.4.1H32.5l.6-.2q.3-.1.4-.4zM41.1 11.8l-1.3-5.5q-1-3.7-1.7-5.1-.4-.9-.6-.9-.5 0-.5 1V3.2L36.9 5v2.6l.1 2.8.1 3.3V15q0 .3.4.3l.4-.1q.3-.1.3-.3l-.2-2.8-.1-2.8V2.9q1.1 4.4 2.4 8.7 1.2 4 1.6 4l.4-.2.2-.6v-6V5 1.5q0-.4.2-.6V.8q0-.8-.5-.8-.6 0-.7.5V13.2zM47.2 3l.1-.8q.1-.4.4-.7.3-.3.6-.3.3.2.8.2l.3-.5q0-.3-.4-.5l-.7-.2q-.7 0-1.2.5-.5.4-.8 1l-.2 1.4q0 .9.3 1.8l.5 1.4.7 1.5.3.6q.5.9.7 1.8.3 1 .3 1.8v.8l-.4 1q-.1.5-.5.8-.3.3-.6.3l-.5-.1-.6-.2q-.2 0-.3.2-.2.1-.2.4 0 .2.4.4.5.2 1.2.2.6 0 1.2-.3.5-.4.8-1l.5-1.1.2-1.3-.2-1.8q-.2-.9-.6-1.6l-1.2-2.5L48 6q-.4-.7-.6-1.5L47.2 3z"/>
    <path id="oecd" d="M2.1 0q-.4 0-.7.2-.3.1-.5.4l-.4.7q-.3.8-.4 1.9l-.1 2v3.4l.1 1.5.2 1.5.4 1.6q.2.8.5 1.3l.7 1q.5.3 1 .3.6 0 1-.4l.7-1 .2-1.2.1-1.3.1-1.3V8.2 5.6 4.2L4.6 3l-.4-1.1-.5-1Q3.5.4 3 .2 2.6 0 2.1 0zm.1 1q.4 0 .6.3l.5.8q.5 1 .6 2.4l.3 2.7v3.1L4 12.4q-.1 1-.4 1.6-.3.8-.7.8-.4 0-.8-.7l-.5-1.6q-.3-1-.4-2.2-.3-2-.3-3.2V7 5.6l.2-2q0-1 .4-1.8.2-.8.7-.8zM18.8 14.7q0-.5-1.2-.5h-1v-6q0-.2.3-.2h.5l.4-.1q.2-.2.2-.5 0-.2-.2-.3l-.4-.2-.7.1h-.3l.1-1V4.8 3.2l-.1-1.6h.8q.9 0 .9-.6 0-.3-.3-.5l-.6-.2-.8.1-.7.1-.5.7.1 1 .2 1v11.6q0 .4.3.5h.3l.4.1h1.2l.6-.2q.3-.1.5-.4zM33.7 13.7l-.7.3q-.5.4-.9.4-.8 0-1.3-.7l-.4-.9-.2-1-.2-1-.1-1.2V7v-.7l.1-.6V5v-.7-.6V3l.1-.5.3-.5.3-.4q.5-.3 1.2-.3h.3q0 .2.3.2l.4.1.4-.1.1-.3q0-.3-.2-.5-.2-.3-.5-.4l-.6-.1q-1 0-1.6.3-.8.3-1.2 1-.4.6-.4 1.3v8l.3 1.5.3 1.3.5 1q.4.5.8.7.5.3 1 .3h.7l.7-.2.5-.3q.3-.2.4-.5l.2-.6q-.3-.3-.6-.3zM45.2 15.3q.7 0 1.4-.5.6-.5 1-1.3.6-.7 1-1.8L49 10l.2-1.5v-.2V8 6.3v-.9l-.1-.9-.2-1-.3-1-.5-.8-.6-.7-.8-.5-1-.2h-.3q-1.6 0-1.6.7l.3 1.2.2 1.5v2.1l.1 3.3.2 3.2q0 2-.4 2.4 0 .3.2.5l.7.1zm.4-3l-.2-5.4-.2-5.4q.6 0 1.1.3.6.2.9.7.7 1 1 2.2l.1 2.4q0 2-.5 3.9-.3 1-.9 1.9-.5.8-1.3 1.3z"/>
    <path id="ptrail" d="M.5 7.5v7.6l.4.2q.3 0 .5-.3l.1-.6v-3l-.1-3.1q1.2-.7 1.8-1.8.7-1.2.7-2.7 0-.7-.2-1.3-.2-.7-.6-1.3-.4-.5-1-.8Q1.5 0 .8 0 .3 0 0 .5q.5 2.4.5 7zM2.8 4q0 1-.3 1.8-.4.8-1.2 1.5v-3L1 1l.5.4.8.6.1.3.2.4.1 1.2zM11.4 15.1h-.5l-.1-.5v-2.5l-1-.4-1.3-.1q-.2.3-.3 1l-.1.3-.3 1.2-.3.8q-.8 0-.9-.4.2-.2.5-1.8L7.8 9l.8-4.4.8-3q.4-1.4.8-1.4l.7.1.3 3.9.4 4 .2 3 .2 3.2q0 .6-.6.6zm-1-4.2h.4l-.2-2.2-.5-5.5v-.1q-.2.2-.5 1.7l-.7 3.5-.3 2.4q.8.2 1.8.2zM15.4 7.5v7.6l.4.2q.3 0 .5-.3.2-.2.2-.6l-.1-3V8.2q1.1-.7 1.8-1.8.6-1.2.6-2.7 0-.7-.2-1.3-.2-.7-.6-1.3-.4-.5-1-.8-.6-.4-1.3-.4-.5 0-.8.5.5 2.4.5 7zM17.8 4q0 1-.4 1.8-.3.8-1.1 1.5l-.1-3L16 1l.6.4.7.6.2.3.2.4V4zM25.6 14.6q0-.5-1.1-.5h-1.1v-6q0-.2.4-.2h.5q.2 0 .3-.2.2-.1.2-.4l-.2-.4-.4-.1h-.6l-.3.1V6 4.6 3 1.4h.7q.9 0 .9-.6 0-.2-.3-.4L24 .2h-.7l-.8.2-.5.7.2 1 .1 1v11.5q0 .5.3.6h1.9l.6-.1.5-.4zM30.1 6.9l.7 2.4.9 3.1.4 2.4q.3.6.7.6.3 0 .4-.4v-.2-.3l-.5-1.8-.7-2.2-.5-2q-.3-1-.3-1.8l.2-.5.3-.6.3-1 .1-1.2v-.9l-.3-.9-.5-.7q-.3-.4-.8-.6l-.8-.2-.5.1V3L29 8.8V15q.2.2.5.2t.4-.2l.1-.4zm.6-1.7l-.6.8V5 3 1q.2 0 .4.3l.3.6q.3.8.3 1.4v.2zM45.3 5V3.6 1.3h.8q.3 0 .5-.2l.1-.3q0-.3-.2-.4-.1-.2-.4-.2h-.8q-1.6.1-2.4.4-.4.2-.4.4l.2.4.4.1h1.1q.2.3.2 1.8V8l.2 3.1v1.6l-.1 1.6.1.7q.2.3.5.3.6 0 .6-1l-.1-1.8-.1-1.7V8.5l-.2-2.3zM50.7 6.9l.7 2.4.9 3.1.4 2.4q.3.6.7.6.3 0 .4-.4v-.2-.3l-.5-1.8-.7-2.2-.5-2q-.3-1-.3-1.8l.2-.5.3-.6.3-1 .1-1.2v-.9l-.3-.9-.5-.7q-.3-.4-.7-.6l-1-.2-.4.1V3l-.1 5.8V15q.2.2.5.2t.4-.2l.1-.4zm.6-1.7l-.6.8V5 3 1q.3 0 .4.3l.3.6q.3.8.3 1.4v.2zM61 15.1h-.5l-.1-.5v-2.5l-1-.4-1.3-.1-.4 1v.3l-.3 1.2-.3.8q-.8 0-.9-.4.2-.2.5-1.8l.7-3.6.8-4.4q.3-1.8.7-3 .5-1.4 1-1.4l.5.1.4 3.9.4 4 .2 3 .2 3.2q0 .6-.6.6zM60 11h.3l-.2-2.2-.4-5.5v-.1q-.2.2-.5 1.7l-.7 3.5-.3 2.4q.8.2 1.7.2zM67.9 14.6q0-.7-.8-.7h-.4v-.7q0-2-.3-5.8l-.2-5.8v-.3h.7q.2 0 .3-.2l.2-.4-.2-.4-.4-.1-1.4.1-.8.3-.2.4q0 .5.4.5l.5-.1v3.1l.2 4.6.2 4.5-.1.4H65q-.6 0-.6.5 0 .6 1.7.6h1.3l.5-.4zM72.6 13.5V8.4v-.2-.5L72.4 4 72.3.6l-.1-.4Q72 0 71.7 0l-.3.1-.1.3.2 6.7.2 6.8-.1.4v.4l.1.5q.2.2.5.2.4 0 .6-.3h1.6q.2-.2.2-.5t-.4-.6h-1.6z"/>
    <path id="pmic" d="M.5 7.7v7.5l.4.2q.3 0 .5-.2l.1-.6v-3.1l-.1-3q1.2-.7 1.8-1.9Q4 5.4 4 4l-.2-1.4Q3.5 2 3 1.4 2.7.8 2 .5 1.5.2.8.2.3.2 0 .6q.5 2.5.5 7.1zm2.3-3.6q0 1-.3 1.9-.4.8-1.2 1.5V4.4L1 1.2l.5.4.8.6.1.3q.2.2.2.5L2.8 4zM9.3 0l-.8.2-.5.4-.4.7q-.3.9-.4 1.9V10l.3 1.5.3 1.6q.2.8.5 1.3.3.6.8 1 .4.4 1 .4.5 0 1-.5.4-.4.6-1l.2-1.2q0-.7.2-1.3v-1.3l.1-1.3v-1-2.7q0-.7-.2-1.3l-.2-1.4-.3-1.1-.6-1q-.3-.4-.7-.6-.4-.2-1-.2zm0 1q.4 0 .7.3l.5.8q.4 1.1.6 2.4l.2 2.7v3.1q0 1.1-.2 2.1l-.3 1.6q-.3.8-.7.8-.5 0-.8-.7-.4-.6-.6-1.6l-.4-2.2-.2-3.2V7 5.6l.1-2 .4-1.8q.3-.7.7-.7zM17 13.7l-.1-5.2v-.2-.5l-.1-3.5-.1-3.6-.2-.4-.4-.1h-.4l-.1.4.2 6.7.2 6.7v.5l-.1.4q0 .3.2.4l.4.2q.4 0 .6-.2h1.3l.4-.1.1-.4q0-.3-.4-.6H17zM25 14.8q0-.6-1.2-.6l-1 .1V8.2l.4-.1h.4q.3 0 .4-.2l.2-.4q0-.3-.2-.4l-.4-.2-.7.1h-.2V6 4.8 3.2l-.1-1.6h.8q.9 0 .9-.6 0-.3-.3-.5l-.6-.2-.8.1-.7.1-.5.7.1 1.1.2 1v11.5q0 .4.3.5l.3.1h1.6l.6-.2q.3-.1.5-.4zM33.4.7L33.2 3l-.4 2.2-.6 2.6-.1.5-.1.5-.3 1.3-.3-1.5L31 6q-.7-3.6-1.3-4.9-.3-.9-.6-.9l-.6.3V14q0 .6.2 1 .1.3.6.3.3-.4.3-.8v-4l-.1-4.1V4l.6 2.2.6 3q.3 1.1.3 2.1 0 1.9.7 1.9.4 0 .6-.5l.1-.4v-.5l.1-.4.6-3 .7-2.7V15l.1.6.4.2.3-.1.3-.5.1-.5-.1-7.1-.2-7.1q0-.2-.2-.3-.1-.2-.3-.2l-.4.2q-.2.1-.3.4zM41.5 14.8q0-.7-.9-.7h-.4v-.7L40 7.6l-.2-5.8v-.3l.3-.1h.4q.2 0 .3-.2L41 1l-.1-.4-.4-.2-1.4.2q-.5 0-.8.2-.3.2-.3.4 0 .5.5.5h.5v3l.1 4.6.2 4.6v.4h-.7q-.6 0-.6.5 0 .6 1.7.6H41l.5-.4zM49.6 13.7l-.7.4q-.5.3-.8.3-.9 0-1.3-.7l-.4-.8-.3-1-.2-1.1V9.6l-.1-2V7v-.7l.2-.7V5v-.7-.6V3v-.6l.3-.5.3-.3q.5-.4 1.3-.4h.2q0 .2.3.3h.4l.4-.1q.2-.1.2-.3 0-.3-.2-.5l-.6-.4H48q-.9 0-1.6.2-.7.4-1.1 1-.4.6-.4 1.4v.6l-.1 1.8V11l.3 1.4q.1.7.4 1.3.2.7.5 1 .3.5.8.8.4.2 1 .2h.6q.4 0 .7-.2l.6-.3.4-.4.1-.7q-.3-.3-.6-.3z"/>
    <path id="pit" d="M.5 7.8v7.5l.4.2q.3 0 .5-.2l.1-.6v-3.1l-.1-3q1.2-.7 1.8-1.9.7-1.2.7-2.6l-.2-1.4Q3.5 2 3 1.5 2.7.9 2 .6 1.5.3.8.3.3.3 0 .7q.5 2.5.5 7zm2.3-3.6q0 1-.3 1.8-.4.8-1.2 1.6V4.4l-.2-3 .5.3.8.6.1.3q.2.2.2.5l.1 1.1zM8.2 7.1L9 9.6l.8 3 .4 2.4q.3.6.7.6.4 0 .4-.3V15v-.3l-.5-1.8-.7-2.1-.5-2-.3-1.9.2-.5.3-.5.3-1.1.2-1.1-.1-1-.3-.8-.5-.8-.7-.5q-.4-.2-1-.2h-.3l-.1.4V9l-.1 5.8v.2l.1.4.4.1.4-.1.1-.5zm.6-1.6l-.6.7v-.9-2-2q.3 0 .4.3l.3.6q.3.7.3 1.3v.3zM16.4.1l-.8.2q-.3.1-.5.4l-.4.7q-.3.8-.4 1.9v6.9l.3 1.5.3 1.6q.2.8.5 1.3.3.6.8 1 .4.3 1 .3.5 0 1-.4l.6-1 .2-1.2q0-.8.2-1.3v-1.3l.1-1.3V8.3 5.7q0-.8-.2-1.3L19 3q-.1-.6-.4-1.1l-.5-1q-.3-.4-.7-.6-.4-.2-1-.2zm0 1q.4 0 .7.3l.5.8q.4 1 .6 2.4l.2 2.7v3.1q0 1.1-.2 2.1l-.3 1.6q-.3.8-.7.8-.5 0-.8-.7-.4-.7-.6-1.6l-.4-2.2-.2-3.2V7 5.7l.1-2 .4-1.8q.3-.8.7-.8zM24.4 14.6v-.1l-.1-3.2L24 8h.2l.6-.1h.3l.3-.2q.2-.1.2-.4l-.1-.4-.4-.2-.7.1-.4.1-.2-2.6-.1-2.7q0-.2.5-.2h.5l.4-.1q.2-.1.2-.3 0-.4-.2-.6h-1.7q-.3 0-.5.2l-.3.3v.5l.2 2.7.2 5.6.1 4.4q0 1.2.6 1.2l.5-.1.1-.4v-.3zM31 14.6v-.1l-.1-3.2-.2-3.2h.2l.6-.1h.3l.3-.2q.2-.1.2-.4l-.1-.4-.4-.2-.7.1-.4.1-.2-2.6-.1-2.7q0-.2.5-.2h.5l.4-.1q.2-.1.2-.3 0-.4-.2-.6H30q-.3 0-.5.2l-.3.3v.5l.2 2.7.2 5.6.1 4.4q0 1.2.6 1.2l.5-.1.1-.4v-.3zM39.1 14.9q0-.7-.8-.7h-.4v-.8q0-2-.3-5.7l-.2-5.8.1-.3.3-.1H38l.4-.2V1 .6L38 .4l-1.4.2q-.4 0-.7.2-.3.2-.3.4 0 .5.4.5h.5v3l.2 4.6.2 4.6v.3l-.3.1h-.2-.2q-.6 0-.6.5 0 .6 1.7.6h1.3l.5-.4zM46.7 11.8l-1.3-5.5q-1-3.7-1.7-5.1-.4-.9-.6-.9-.5 0-.5 1V3.2L42.4 5v2.6l.1 2.8.1 3.3V15q0 .3.4.3l.4-.1q.3-.1.3-.3l-.2-2.8-.1-2.8V2.9q1.1 4.4 2.4 8.7 1.2 4 1.6 4l.4-.2.2-.6v-6V5 1.5q0-.4.2-.6V.8q0-.8-.5-.8-.6 0-.7.5V13.2zM56.5 15.4q.2.4.7.4.2 0 .3-.2.2-.1.2-.3l-.2-1.8-.2-1.8q0-.4-.3-.7-.2-.3-.6-.3l-1 .1q-.3 0-.5.2l-.2.3q0 .6.7.6h.8l.2.8v1.4q-.5.8-1.4.8l-.8-.2q-.4-.2-.6-.5-.3-.3-.4-.8l-.3-1-.2-1v-1-1-1.2-1.9-1l.2-1.4.3-1 .3-1q.2-.5.5-.7.3-.2.7-.2H55.6l.2-.4q0-.6-.8-.6l-1 .2q-.4.1-.7.4l-.6.6-.4.8-.3 1q-.3 1-.3 2l-.1 2v3.5q0 .6.2 1l.1 1.1.3 1 .5 1 .6.7q.3.3.8.4.4.2 1 .2h.4l.6-.3.4-.2zM70.3 14.9q0-.7-.8-.7H69v-.8q0-2-.3-5.7l-.2-5.8v-.3l.4-.1H69.3q.2 0 .3-.2.2-.1.2-.3 0-.3-.2-.4l-.4-.2-1.4.2q-.5 0-.8.2l-.2.4q0 .5.4.5h.5v3l.2 4.6.2 4.6-.1.3-.2.1h-.4q-.6 0-.6.5 0 .6 1.7.6h1.3l.5-.4zM76.2 5.2V3.9l-.1-2.4h.9l.4-.1.2-.4-.2-.4q-.2-.2-.5-.2h-.8l-2.3.4q-.5.2-.5.4 0 .3.2.4l.4.2h.6l.5-.1q.2.4.2 1.8v1.7l.1 3.1.1 3V13l-.1 1.5q0 .4.2.7.1.3.4.3.6 0 .6-1v-1.7l-.2-1.8V8.7l-.1-2.2z"/>
    <path id="qmics" d="M5.2 9V8 7 5.7L5 4.3q0-.7-.2-1.3-.1-.6-.4-1.1-.2-.6-.5-.9-.3-.4-.7-.6l-1-.2-.8.2q-.3.1-.5.4l-.4.7-.3.9-.1 1L0 5.1v3L0 10V11l.2 1.2q.1.6.4 1 .2.6.6 1 .4.6 1 .9h.7l.1.6.1.6.2.5q.2.7.7 1l.9.2q.8 0 .8-.6 0-.3-.3-.4h-.6l-.3-.3-.2-.5-.3-1.2v-.4q.5-.7.7-1.4.3-.6.4-1.4v-2zM2 1.2q.4 0 .7.2l.5.5.4.8.2 1L4 4.8v1L4.2 7v5.3q0 1.5-.7 2.2-.4 0-.6.2-.4 0-.7-.3l-.5-1q-.4-1-.5-2.3L1 9.1V7.3l.2-2.8q0-1.4.3-2.3.2-1 .6-1zM8.6 1.6v6.8l.2 1.9.3 1.7.5 1.5q.2.7.6 1.2.4.5.9.8.5.3 1 .3l1-.2.5-.5.3-.8.2-.8v-.9l-.2-5.1-.2-5 .1-.6V1l-.4-.5-.5.1-.2.4v1.7l.1 1.7v1.3l.2 1.9.1 1.8v4.4l-.1.6q0 .3-.3.5-.1.2-.4.2-.5 0-.9-.5-.4-.4-.7-1.1l-.4-1.3-.1-1V9.7l-.3-1V5.4l-.2-3.5Q9.7.5 9 .5l-.4.2-.1.4v.5zM21 14.8q0-.5-1-.5h-1.2v-6q.2-.2.5-.2h.4l.4-.1.2-.4q0-.3-.2-.4l-.4-.2-.6.1h-.3v-1-1.2-1.6l-.1-1.6h.8q.9 0 .9-.6 0-.3-.3-.5l-.6-.2-.8.1-.7.1-.5.7.2 1V15q0 .4.4.5h.3l.4.1H20l.6-.2q.4-.1.5-.4zM25.6 3l.1-.8q.1-.4.4-.7.3-.3.6-.3.3.2.8.2l.3-.5q-.1-.3-.4-.5l-.7-.2q-.7 0-1.2.5-.5.4-.8 1l-.2 1.4q0 .9.3 1.8l.5 1.4.7 1.5.3.6q.5.9.7 1.8.3 1 .3 1.8l-.1.8q0 .5-.3 1-.1.5-.5.8-.3.3-.6.3l-.5-.1-.6-.2-.4.2v.4l.2.4q.6.2 1.3.2.6 0 1.2-.3.5-.4.8-1l.5-1.1.2-1.3-.2-1.8q-.2-.9-.6-1.6l-1.2-2.5-.2-.2-.5-1.5-.2-1.5zM34.3 5.2V3.9l-.1-2.4h.9l.4-.1.2-.4-.2-.4q-.2-.2-.5-.2h-.8L32 .9q-.5.2-.5.4 0 .3.2.4l.4.2h.6l.5-.1q.2.4.2 1.8v1.7l.1 3.1.1 3V13l-.1 1.5.1.7q.2.3.5.3.6 0 .6-1v-1.7l-.2-1.8V8.7l-.1-2.2zM42.7 8.3q0-.3-.2-.4-.2-.2-.5-.2h-.8q-1.6.1-2.3.4-.5.2-.5.4l.2.4q.2.2.5.2h.8l2.3-.4q.5-.2.5-.4zM48.1.1q-.4 0-.7.2-.3.1-.5.4l-.4.7q-.3.8-.4 1.9l-.1 2v3.4l.1 1.5.2 1.5.4 1.6q.2.8.5 1.3l.7 1q.5.3 1 .3t1-.4l.7-1 .2-1.2.1-1.3.1-1.3V8.3 5.7L51 4.4 50.7 3l-.4-1.1-.5-1q-.3-.4-.8-.6-.4-.2-.9-.2zm.1 1q.3 0 .6.3l.5.8q.5 1 .6 2.4l.3 2.7v3.1l-.2 2.1q-.1 1-.4 1.6-.3.8-.7.8-.4 0-.8-.7l-.6-1.6-.3-2.2q-.3-2-.3-3.2V7 5.7l.2-2q0-.9.4-1.8.2-.8.7-.8zM58.6 8.3q0-.3-.2-.4l-.4-.2h-.8q-1.7.1-2.4.4-.4.2-.4.4l.2.4.4.2h.8l2.4-.4q.4-.2.4-.4zM66.1 11.8l-1.3-5.5q-1-3.7-1.7-5.1-.4-.9-.6-.9-.5 0-.5 1V3.2L61.9 5v2.6l.1 2.8.1 3.3V15q0 .3.4.3l.5-.1q.2-.1.2-.3l-.2-2.8-.1-2.8V2.9q1.1 4.4 2.4 8.7 1.2 4 1.6 4l.4-.2.2-.6v-6V5 1.5q0-.4.2-.6V.8q0-.8-.5-.8-.6 0-.7.5V13.2zM73.2.1q-.4 0-.7.2-.3.1-.5.4l-.4.7q-.3.8-.4 1.9v6.9l.2 1.5.4 1.6q.2.8.5 1.3l.7 1q.5.3 1 .3.6 0 1-.4l.7-1 .2-1.2.1-1.3.1-1.3.1-1.3V8.3 5.7q0-.8-.2-1.3L75.8 3l-.4-1.1-.5-1q-.3-.4-.7-.6l-1-.2zm.1 1q.4 0 .7.3l.5.8q.4 1 .5 2.4l.3 2.7v3.1l-.2 2.1q-.1 1-.4 1.6-.3.8-.6.8-.5 0-.9-.7l-.5-1.6-.4-2.2q-.3-2-.3-3.2V7 5.7l.2-2q0-.9.4-1.8.3-.8.7-.8zM84.6.8l-.2 2.4-.4 2.2-.6 2.6v.5l-.2.5-.3 1.3-.3-1.5-.5-2.6q-.7-3.6-1.3-5-.3-.8-.6-.8l-.6.3V14.1q0 .6.2 1 .1.2.6.2.3-.3.3-.7v-4l-.1-4.1V4l.6 2.2.6 3q.3 1 .3 2.1 0 1.9.7 1.9.4 0 .6-.5l.1-.4v-.5l.1-.4v-.1l.7-3 .6-2.6v9.3q0 .4.2.6 0 .2.3.2l.3-.1.3-.5.2-.6-.2-7-.2-7.1q0-.2-.2-.3-.1-.2-.3-.2l-.4.1-.3.4zM92.7 14.9q0-.7-.8-.7h-.5v-.8l-.2-5.7-.2-5.8v-.3l.3-.1h.4q.2 0 .3-.2.2-.1.2-.3 0-.3-.2-.4l-.4-.2-1.4.2q-.5 0-.8.2-.3.2-.3.4 0 .5.5.5h.5v3l.2 4.6.1 4.6v.3l-.3.1h-.4q-.6 0-.6.5 0 .6 1.7.6h1.4l.5-.4zM100.8 13.8l-.7.3q-.5.4-.8.4-.9 0-1.3-.7l-.4-.8-.3-1-.2-1.2v-1L97 7.5v-.5-.7l.2-.6V5v-.7-.6V3v-.5l.3-.5.3-.4q.5-.3 1.3-.3h.2q0 .2.3.2l.4.1.4-.1q.2-.1.2-.3 0-.3-.2-.5-.2-.3-.6-.4l-.6-.1q-.9 0-1.6.3-.7.4-1.1 1-.4.6-.4 1.4v.6L96 5.4v5.5l.3 1.5q.1.7.4 1.3.2.7.5 1 .3.5.8.8.4.2 1 .2h.6q.4 0 .7-.2l.6-.3.4-.5.1-.6q-.3-.3-.6-.3zM105.9 3v-.8l.5-.7q.2-.3.6-.3.3.2.8.2l.3-.5q-.1-.3-.5-.5-.3-.2-.7-.2-.7 0-1.2.5-.5.4-.7 1-.3.7-.3 1.4 0 .9.3 1.8l.5 1.4.8 1.5.3.6.7 1.8q.3 1 .3 1.8l-.1.8-.3 1-.5.8q-.3.3-.7.3l-.5-.1-.6-.2q-.2 0-.3.2l-.1.4q0 .2.3.4.5.2 1.2.2t1.2-.3q.5-.4.9-1 .3-.5.4-1.1l.2-1.3-.2-1.8-.5-1.6-1.3-2.5-.1-.2-.5-1.5-.2-1.5z"/>
    <path id="sup" d="M1.4 2.7V2l.5-.7.6-.4q.3.2.8.2l.3-.4Q3.5.4 3.1.2 2.8 0 2.4 0q-.7 0-1.2.5-.5.4-.7 1Q.2 2.2.2 3q0 .9.3 1.8L1 6.1l.8 1.5.3.6.7 1.8q.3 1 .3 1.8l-.1.8-.3 1-.5.8q-.3.3-.7.3l-.5-.1-.6-.2q-.2 0-.3.2L0 15q0 .2.3.4.5.2 1.2.2t1.2-.3q.6-.4.9-1l.5-1.2.1-1.2L4 10l-.5-1.6L2.3 6 2 5.7l-.5-1.4-.2-1.6zM7.4.6v1.8q0 3.7.2 6.2 0 2 .2 3.4l.3 2.2q.2 1 .5 1 .2 0 .3-.2l.1-.4-.2-3.4L8.7 8l1.1-.1h.7q.2 3.3.2 7v.5q.2.2.5.2l.4-.2.1-.5-.1-6.5-.2-6.6v-.4l-.1-.4-.1-.4-.3-.2h-.5v6.9l-.9.1h-1V7v-.4V6v-2-2V.6L8.2.4 7.8.3q-.4 0-.4.3zM15 1.3v3.1q0 2 .2 3.8l.1 1.9.3 1.7.5 1.5.6 1.2.8.8q.5.2 1.1.2l1-.2q.3-.1.5-.4l.3-.8.1-.8v-.9-5.2q-.3-3.2-.3-5l.1-.5v-1L20 .3l-.5.1q-.3.2-.3.4l.1 1.7v1.7l.1.6v.6l.2 2v6.8q0 .3-.3.5l-.4.1q-.5 0-1-.4l-.6-1.1-.4-1.3-.1-1.1-.1-1.3-.2-1V5.2l-.2-3.5q0-1.4-.7-1.4l-.4.2-.2.4q0 .3.2.4zM26.5 5V3.7l-.1-2.4H27.3l.4-.1.2-.4-.2-.4-.4-.2h-.8L24 .7q-.5.2-.5.4l.2.4q.2.2.5.2l.5-.1h.6l.1 1.8V5l.1 3 .2 3.2v1.5l-.2 1.6q0 .4.2.7.2.3.5.3.5 0 .5-1v-1.7l-.1-1.8-.1-2.3-.1-2.2zM33.3 5V3.7l-.1-2.4h.9l.4-.1.2-.4-.2-.4q-.2-.2-.5-.2h-.8l-2.3.4q-.5.2-.5.4l.2.4.4.2.6-.1h.5q.2.4.2 1.8V5l.1 3 .1 3.2v1.5l-.1 1.6.1.7q.2.3.5.3.6 0 .6-1v-1.7l-.2-1.8V8.5l-.1-2.2zM41 14.6q0-.5-1-.5h-1.2v-6l.4-.2h.5l.4-.1q.2-.2.2-.5 0-.2-.2-.3l-.4-.2-.7.1h-.3l.1-1V4.7 3.1l-.1-1.7h.8q.9 0 .9-.5 0-.3-.3-.5l-.6-.2-.8.1-.7.1-.5.7.1 1 .2 1v11.6q0 .4.3.5h.3l.4.1H40l.6-.2q.3-.1.5-.4zM45.6 6.9l.7 2.5.9 3q.3 1.4.3 2.4.4.6.8.6.3 0 .4-.3v-.3-.3l-.5-1.8-.8-2.2-.5-2-.2-1.8.2-.5.2-.5.4-1.1.1-1.2v-.9l-.4-.9-.5-.7q-.3-.4-.7-.5-.4-.2-.9-.2h-.4l-.1.4v14.6l.4.1.5-.1v-.5zm.6-1.7q-.3.5-.7.8v-.9-2l.1-2q.2 0 .4.3l.3.5.2 1.4v.2zM58.2 1.3v6.9l.3 1.9q0 .8.3 1.7.1.8.4 1.5l.6 1.2q.4.5.9.8l1 .2q.6 0 1-.2.3-.1.5-.4l.3-.8.2-.8v-.9l-.2-5.2-.1-5v-.5l.1-.6V.7L63 .3l-.5.1-.2.4v1.7l.1 1.7v1.2l.2 2 .1 1.8v5l-.3.5-.5.1q-.5 0-.9-.4l-.7-1.1L60 12l-.2-1.1V9.6l-.3-1V5.2l-.1-3.5q0-1.4-.8-1.4l-.4.2-.1.4.1.4zM67.5 7.6v3.7l-.1 3.3.1.5q.1.2.4.2.3 0 .5-.2l.1-.6v-3.1l-.1-3q1.2-.7 1.8-2 .6-1 .6-2.6l-.2-1.3-.5-1.2q-.4-.6-1-.9-.6-.3-1.4-.3-.4 0-.7.4.5 2.4.5 7zM69.8 4q0 1-.3 1.8-.4.8-1.2 1.6V4.2l-.2-3 .5.3.7.6.2.3q.2.2.2.5l.1 1.1z" style="-inkscape-font-specification:'Amatica SC Bold'"/>
    <path id="won" d="M6.5 15l.2-3.4.5-3.6.5-3.6Q8 2.4 8 1l.2-.4L8 .2 7.6 0Q7 0 7 .2q-.2.2-.2.7l-.1 3-.5 3.9-.3 3.1-.6-2.5-.7-3-.2-2.5v-.3q0-.6-.7-.6-.2 0-.3.2l-.2.4V3L3 4.7l-.2 2-.3 2.2-.2 1.6L2.2 8v-.3q-.3-3-.7-5-.3-2-.8-2T0 1l.6 3.4.8 6 .5 3.8q0 1.5.7 1.5l.4-.2.1-.4.2-2.8q0-1.4.2-2.5l.4-3L4.1 8l.3 2.3q.6 3.2 1 4.5.3.8.5.8.3 0 .4-.2.2-.2.2-.5zM11.9 7.1l.7 2.5.8 3q.4 1.4.4 2.4.4.6.7.6.4 0 .5-.3V15v-.3l-.6-1.8-.7-2.1-.5-2-.2-1.9.2-.5.2-.5.4-1.1V3.7v-1q0-.4-.3-.8L13 1l-.7-.5q-.4-.2-.9-.2H11l-.1.4V9l-.1 5.8v.2l.1.4.4.1.4-.1q.2-.2.2-.5zm.6-1.6l-.7.7v-.9-2-2q.3 0 .5.3l.3.6.2 1.3v.3zM21 14.9q0-.7-.8-.7h-.4v-.8l-.2-5.7-.2-5.8v-.3l.3-.1h.4q.2 0 .3-.2l.1-.3-.1-.4-.4-.2-1.4.2q-.5 0-.8.2-.3.2-.3.4 0 .5.5.5h.4v3l.2 4.6.2 4.6v.3l-.3.1h-.2-.2q-.6 0-.6.5 0 .6 1.7.6h1.4l.5-.4zM27 5.2V3.9l-.2-2.4H27.7l.5-.1.1-.4-.2-.4-.4-.2h-.8l-2.4.4q-.4.2-.4.4 0 .3.2.4l.4.2h.6l.5-.1q.2.4.2 1.8v4.8l.2 3V13l-.1 1.5.1.7q.2.3.5.3.6 0 .6-1l-.1-1.7L27 11V8.7l-.2-2.2zM34.7 14.8q0-.5-1-.5h-1.2v-6q.1-.2.4-.2h.5l.4-.1.1-.4-.1-.4q-.2-.2-.5-.2l-.6.1h-.3v-1l.1-1.2V3.3l-.1-1.6h.7q1 0 1-.6 0-.3-.4-.5-.2-.2-.6-.2l-.7.1-.7.1-.5.7.1 1 .1 1V15q0 .4.4.5h.3l.3.1H33.7l.6-.2q.3-.1.4-.4zM47 .1q-.4 0-.7.2-.3.1-.5.4l-.4.7q-.3.8-.4 1.9v6.9l.3 1.5q0 .8.3 1.6.2.8.5 1.3l.7 1q.5.3 1 .3.6 0 1-.4l.7-1 .2-1.2.1-1.3.1-1.3.1-1.3V8.3 5.7q0-.8-.2-1.3L49.6 3l-.4-1.1-.5-1q-.3-.4-.7-.6l-1-.2zm.1 1q.4 0 .7.3l.5.8q.4 1 .5 2.4l.3 2.7v3.1l-.2 2.1q-.1 1-.4 1.6-.2.8-.6.8-.5 0-.9-.7l-.5-1.6-.4-2.2q-.3-2-.3-3.2V7 5.7l.2-2q0-.9.4-1.8.3-.8.7-.8zM57.6 11.8l-1.4-5.5q-1-3.7-1.6-5.1-.4-.9-.7-.9-.4 0-.4 1V3.2L53.3 5v5.4l.2 3.3V15q0 .3.4.3l.4-.1q.2-.1.2-.3v-2.8l-.2-2.8V2.9q1 4.4 2.3 8.7 1.3 4 1.7 4l.4-.2.1-.6v-6L59 5V1.5q0-.4.2-.6V.8q0-.8-.6-.8-.5 0-.6.5V13.2z"/>
    <path id="sgames" d="M1.4 3v-.8l.5-.7q.3-.3.6-.3.3.2.8.2l.3-.5Q3.5.6 3.1.4 2.8.2 2.4.2q-.7 0-1.2.5-.5.4-.7 1-.3.7-.3 1.4 0 .9.3 1.8L1 6.3l.8 1.5.3.6.7 1.8q.3 1 .3 1.8l-.1.8-.3 1-.5.8q-.3.3-.7.3l-.5-.1-.6-.2q-.2 0-.3.2l-.1.4q0 .2.3.4.5.2 1.2.2t1.2-.3q.6-.4.9-1l.5-1.1.1-1.3-.2-1.8-.5-1.6-1.2-2.5L2 6l-.5-1.5L1.4 3zM11.8 15.4l-.4-.1q-.2-.1-.2-.4v-2.6q-.3-.2-1-.3L9 11.8q-.2.3-.3 1v.3l-.4 1.3q0 .5-.3.8-.7 0-.8-.4l.5-1.9.6-3.6L9 5l.8-3q.4-1.4.8-1.4.5 0 .7.2l.4 3.8.4 4 .2 3 .2 3.2q0 .7-.7.7zm-1-4.3h.4L11 8.9l-.5-5.4v-.2L10 5.1l-.6 3.4L9 11l1.8.2zM20.3 13.8l-.7.3q-.5.4-.9.4-.8 0-1.2-.7L17 13l-.2-1-.2-1.2v-1l-.1-2.2v-.5-.7l.1-.6V5v-.7-.6V3q0-.3.2-.5 0-.3.2-.5l.3-.4q.5-.3 1.2-.3h.3q0 .2.3.2l.4.1.4-.1q.2-.1.2-.3 0-.3-.3-.5-.2-.3-.5-.4l-.6-.1q-1 0-1.6.3-.7.4-1.2 1-.4.6-.4 1.4v7.9l.3 1.5.3 1.3q.3.7.6 1 .3.5.8.8.4.2 1 .2h.6l.7-.2.5-.3q.3-.2.4-.5.2-.2.2-.6-.3-.3-.6-.3zM25.3 7.1l.7 2.5 1 3 .3 2.4q.3.6.7.6.4 0 .4-.3V15v-.3l-.5-1.8-.7-2.1-.5-2-.3-1.9.2-.5.3-.5.3-1.1.2-1.1-.1-1L27 2l-.5-.8-.7-.5q-.4-.2-1-.2h-.4V9l-.1 5.8v.2l.1.4.4.1.4-.1.1-.5zm.6-1.6l-.6.7v-.9-2-2q.3 0 .4.3l.3.6q.3.7.3 1.3v.3zM34.9 14.8q0-.5-1.2-.5h-1v-6q0-.2.3-.2h.5L34 8l.1-.4-.1-.4-.4-.2-.7.1h-.3v-1l.1-1.2V3.3l-.1-1.6h.8q.9 0 .9-.6 0-.3-.3-.5l-.6-.2-.8.1-.7.1-.5.7.1 1 .2 1V15q0 .4.3.5h.3l.3.1H33.8l.6-.2q.3-.1.5-.4zM39.1 15.4q.7 0 1.4-.5.6-.5 1-1.3.6-.7 1-1.8L43 10l.2-1.5v-.2-.2V6.4v-.9l-.1-.9-.2-1-.3-1-.5-.8-.6-.7-.8-.5-1-.2h-.3q-1.5 0-1.5.7l.2 1.3.2 1.4v2.1l.1 3.3.2 3.2q0 2-.4 2.4 0 .3.2.5l.7.1zm.4-3L39.3 7l-.2-5.4q.6 0 1.1.3.6.2.9.7.7 1 1 2.2l.1 2.4q0 2-.5 3.9-.3 1-.9 1.9-.5.8-1.3 1.3zM58.2 15.4q.1.4.6.4l.4-.2.1-.3-.2-1.8-.2-1.8q0-.4-.2-.7-.2-.3-.6-.3l-1 .1q-.3 0-.5.2l-.2.3q0 .6.6.6h.8q.2.2.2.8l.1 1.4q-.5.8-1.4.8-.5 0-.8-.2l-.7-.5-.4-.8-.3-1-.1-1v-1l-.1-1V8.2 6.3l.1-1 .2-1.4q0-.6.2-1l.4-1q.2-.5.5-.7.3-.2.7-.2h.9l.2-.4q0-.6-.9-.6-.5 0-.9.2l-.8.4-.5.6-.5.8-.3 1-.3 2v5.5l.1 1q0 .6.2 1.1l.3 1 .4 1 .6.7.8.4 1 .2h.5l.5-.3.5-.2zM66.3 15.4l-.5-.1-.1-.4v-2.6q-.3-.2-1-.3l-1.4-.2-.3 1v.3l-.3 1.3-.3.8q-.8 0-.9-.4.2-.3.5-1.9l.6-3.6.9-4.4q.3-1.8.7-3 .5-1.4.9-1.4t.6.2l.4 3.8.4 4 .2 3 .2 3.2q0 .7-.6.7zm-1-4.3h.3l-.2-2.2-.4-5.4v-.2q-.2.2-.6 1.8l-.6 3.4-.3 2.4q.8.2 1.7.2zM73.2 14.9q0-.7-.8-.7H72v-.8q0-2-.3-5.7l-.2-5.8v-.3l.4-.1H72.2q.2 0 .3-.2.2-.1.2-.3 0-.3-.2-.4L72 .4l-1.4.2q-.5 0-.8.2-.3.2-.3.4 0 .5.5.5h.5v3l.2 4.6.1 4.6v.3l-.2.1h-.5q-.6 0-.6.5 0 .6 1.8.6h1.3l.5-.4zM80.8 11.8l-1.4-5.5q-1-3.7-1.6-5.1-.4-.9-.7-.9-.4 0-.4 1V3.2L76.5 5v5.4l.2 3.3V15q0 .3.3.3l.5-.1q.2-.1.2-.3l-.1-2.8-.1-2.8V2.9q1 4.4 2.3 8.7 1.2 4 1.7 4l.4-.2.1-.6v-6l.1-3.7V1.5q0-.4.2-.6V.8q0-.8-.6-.8-.5 0-.6.5V13.2H81zM86.9 3v-.8l.5-.7q.3-.3.6-.3.3.2.8.2l.3-.5q-.1-.3-.5-.5-.3-.2-.7-.2-.7 0-1.2.5-.5.4-.7 1-.3.7-.3 1.4 0 .9.3 1.8l.5 1.4.8 1.5.3.6.7 1.8q.3 1 .3 1.8l-.1.8-.3 1-.5.8q-.3.3-.7.3l-.5-.1-.6-.2q-.2 0-.3.2l-.1.4q0 .2.3.4.5.2 1.2.2t1.2-.3q.6-.4.9-1l.5-1.1.1-1.3-.2-1.8-.5-1.6-1.2-2.5-.2-.2-.5-1.5-.2-1.5z"/>
    <path id="smg" d="M1.5 3l.1-.7q.1-.5.4-.8.3-.3.7-.3.3.2.8.2L4 .9Q3.8.6 3.4.4 3 0 2.6 0 2 .1 1.3.6q-.5.5-.8 1.2L.3 3.2q0 1 .3 2L1 6.7 2 8.3l.3.6.8 2q.3 1 .3 2v.8l-.4 1-.5 1q-.3.3-.7.3L1 16l-.6-.2q-.3 0-.4.2l-.1.4q0 .3.3.4.6.3 1.4.3.7 0 1.2-.4.6-.4 1-1l.5-1.3.2-1.3-.2-2-.6-1.7-1.4-2.7-.1-.3q-.4-.7-.6-1.5L1.5 3zM9.8 15.4v.8l.4.3q.3 0 .5-.2t.2-.5l-.3-6q-.4-4-.4-6V3.4h.5l.5.1.5-.1.2-.4q0-.5-.6-.5H11h-.2l-1.4-.1L8 2.4l-.4.1q-.2.1-.2.3l.2.4q.3.2 1.6.3L9.5 9l.3 4.7v.8zM20.7 8.2V6.3l-.5-1.6q-.3-.8-.7-1.3-.5-.6-1.2-1-.7-.2-1.5-.2l-.6.2q-.2.2-.3.7l-.3.9q-.2.4-.2 1l-.2 1.2V10l.2 2.8q.1 1.6.7 2.8.3.6.8 1 .5.3 1 .3 2.9 0 2.9-6.1V8.4zm-3.1-4.9q.5 0 .9.3t.6.7l.3 1v.4l.1 2.5.1 2.5v1.9l-.5 2.3q-.2.5-.6.8-.3.3-.6.3-.4 0-.6-.4-.3-.4-.5-1.1l-.4-3.2V9.1 8 7v-.6-.7V5l.2-.8q.3-.8 1-.8zM28 2.3q-.8 0-1.3.3l-1 .5q-.4.4-.6 1l-.5 1.2-.2 1.3v4.8q0 4 1.4 5 .2.2.8.3l1 .1q1.1 0 1.1-.8l-.2-.4h-.4l-.5.1-.7-.1-.5-.3-.4-.6-.2-.5-.1-.7-.1-1.4v-2l.1-2v-.2q0-1 .3-2.5.1-.9.4-1.4.4-.6.8-.6h1l.3-.1.1-.4-.1-.4q-.2-.2-.5-.2zM37.6 3.1q0-.3-.3-.4-.2-.2-.6-.2-.2 0-.8 1.1-.7 1-1.4 2.6l-.8 1.6V7q0-3.4.3-3.9 0-.3-.2-.5t-.5-.2q-.4 0-.6.4l-.2 3.4-.2 3.5v6.5q0 .3.2.5t.5.2q.4 0 .4-.5v-4q0-2.2.8-3.7l.4 1.9.7 2.9 1 2.3q.5 1.1 1 1.1l.4-.2q.2-.1.2-.4l-.1-.4-.3-.5-.3-.4-.8-2q-.5-1.3-.8-2.8-.4-1.4-.4-2V7l1.9-3 .5-.9zM53.8.7l-.2 2.7-.5 2.3q-.1 1-.6 2.9V9l-.2.5L52 11l-.3-1.6-.6-2.8q-.8-3.9-1.4-5.3-.4-1-.7-1l-.6.4v14.5q0 .6.2 1 .2.3.7.3.3-.4.3-.8v-4.4l-.1-4.4V4.3l.6 2.4.7 3.2q.3 1.2.3 2.3 0 2 .7 2 .5 0 .7-.5l.1-.4.1-.6v-.5l.7-3.1q.6-2 .7-3V16.3q0 .4.2.7.1.2.3.2l.4-.2.4-.5v-.6l-.1-7.6-.2-7.7q0-.2-.2-.3-.1-.2-.3-.2-.3 0-.5.2-.2.1-.3.4zM62.6 13.8l.2 2.2q0 .4.3.6l.7.1q.3-.1.3-.6l-.2-1.3-.2-1.3V13l-.2-.7q0-1.4-.4-4.6-.5-3.2-.5-4.8 0-.3-.2-.4-.2-.2-.5-.2h-.7l-.3.7-.1 1.3v.9q-.8 5.3-2.2 10.8v.2l.2.4.4.1q.3 0 .5-.2.2-.3.4-1.3.1-1.4.3-2l2.1.3zm-.2-1.2q-1.5 0-1.9-.3l1.3-7.6L62 7l.2 2.8.1 2.1v.8zM71 16.9q.3 0 .4-.2.2-.1.2-.3l-.1-.3-.2-.4-.1-.3-.7-1.9L70 11l-.4-2 .4-.7.4-.7.2-.7.1-.7V4.6q0-.7-.3-1.2-.4-.6-1-.8-.6-.3-1.3-.3-.7 0-.7 1l.2 5.9.2 5.8v1.4l.2.3h.6l.3-.6q-.5-1.6-.5-4.4v-1.2-1.1h.3q.2.4.8 3.5l.2.7q.2 1.3.6 2.3.4 1 .9 1zM69.7 5.1l-.2 1.2q-.1.7-.4 1.3-.2.6-.5.7V6l-.1-2.5V3.1q.4 0 .7.2l.3.5.1.6v.7zM79.9 3.1q0-.3-.3-.4-.2-.2-.6-.2-.2 0-.8 1.1-.7 1-1.4 2.6L76 7.8V7q0-3.4.3-3.9 0-.3-.2-.5t-.5-.2q-.4 0-.6.4l-.2 3.4-.2 3.5v6.5q0 .3.2.5t.5.2q.4 0 .4-.5v-4q0-2.2.8-3.7l.4 1.9.7 2.9q.4 1.4 1 2.3.5 1.1 1 1.1l.4-.2q.2-.1.2-.4L80 16l-.3-.5-.3-.4-.8-2q-.5-1.3-.8-2.8-.4-1.4-.4-2V7l1.8-3L80 3zM87 3.4q0-.3-.5-.5l-1-.3-1.1-.2q-1 0-1 1.6l.2.9v3.9l-.1 3.2v4.2l.3.4.5.2h1.8l.7-.1q.3-.2.3-.5 0-.5-.8-.5h-1.6v-1.2-2-1.8V9h1.1q.3 0 .5-.2.2-.1.2-.4 0-.6-1-.6h-.8v-.3-1.5-1.5-1l1.6.5.5-.3.1-.4zM92.3 15.4v.8l.4.3q.3 0 .5-.2.3-.2.3-.5 0-2-.4-6l-.3-6V3.4h.4l.6.1.5-.1.2-.4q0-.5-.7-.5h-.2-.1L92 2.5l-1.4-.1-.5.1q-.2.1-.2.3l.2.4q.4.2 1.6.3L92 9l.3 4.7v.8zM35.6 39.8q.2.5.7.5.3 0 .4-.2.2-.1.2-.4l-.2-1.9-.3-1.9q0-.5-.2-.8-.2-.3-.7-.3l-1 .1q-.4 0-.6.2l-.2.4q0 .6.7.6h.5l.4-.1.2 1v1.4q-.5 1-1.5 1-.5 0-.9-.3-.4-.2-.6-.5l-.5-.9-.3-1-.2-1.1v-1-1.2V32.1v-2-1.2l.3-1.4q0-.7.2-1.2l.4-1q.2-.5.6-.8.3-.2.7-.2h.3l.3.1.4-.1.2-.4q0-.6-1-.6l-1 .1-.8.5-.6.7-.4.8-.4 1-.3 2.3v7l.3 1.2.3 1 .5 1 .6.8q.4.4.9.5l1 .2h.6l.6-.3.4-.3zM43.3 37.2l.2 2.2q0 .3.3.5.2.2.7.2.3-.2.3-.6l-.2-1.4-.2-1.3-.1-.6-.1-.7q0-1.3-.4-4.6-.5-3.2-.5-4.8 0-.3-.2-.4l-.5-.1h-.7q-.2.2-.3.7l-.1 1.2v1q-.8 5.2-2.2 10.7v.2l.1.4q.2.2.5.2t.4-.2q.3-.4.5-1.4.1-1.4.3-2l2.1.3zM43 36q-1.6-.2-2-.4l1.3-7.5.3 2.2.2 2.8.1 2v.9zM55.3 31.5l.2 2.6.1 2.8v2.7q0 1.4.7 1.4.3 0 .5-.3l.2-.6v-.4l-.1-.5-.2-1.5v-1.1l.1-1.1-.1-4.5-.2-4.6q0-.3-.2-.4-.2-.2-.6-.2-.3 0-.7 1-.4.8-.8 2.2L53 34.4l-.4 1.6-1-3.7q-.7-2.5-1.5-4.5-.7-2-1-2l-.6.1-.2.4.1.4q0 2.3-.3 6.6-.4 4.4-.4 6.5 0 .2.2.3l.4.2q.4 0 .6-.2.2-.2.2-.5v-.7-2.6-2.4l.2-2.7.1-2.4 1 3 .8 3.6q.4 1.7.4 2.4 0 .4.2.6.3.3.7.3.4 0 1-2.1l1.3-4.8.7-3v2.7zM64 26.7q0-.2-.5-.4-.5-.3-1.1-.4l-1-.1q-1 0-1 1.5l.1.9v11.3q0 .3.3.4.2.2.5.2h1.8l.7-.1q.2-.2.2-.5 0-.5-.8-.5h-1.5V38v-2V34v-1.6h1.1l.5-.1.2-.4q0-.6-1-.6h-.8V31v-1.6V28v-1l1.6.5.4-.3.2-.4z"/>
</defs>
</svg>
