<svg xmlns="http://www.w3.org/2000/svg">
<defs>
<path id="bg" d="M1036 39.6c2.3 0 2.7 1.5.7 2.3-3 1.1-12.7 1.9-12.7 1 0-1 8.6-3.3 12-3.3zM714.4 103c1.7-.6 5.7 1.2 5.7 2.6 0 1.6-4.6 1.1-6-.5-1-1.2-1-1.6.3-2zM618 117.4c0 1-2.3 2.2-4.2 2.2-.5 0-.8-.6-.6-1.3.5-1.4 4.8-2.3 4.8-.9zm-169.5 6.2c5.5-.5 11.5-1.2 13.3-1.6 2-.4 3.2-.3 3.2.5 0 .6-1.5 1.1-3.3 1.1-1.7 0-6.1.6-9.7 1.4-10 2.1-20 3-20 1.8 0-1.3 3-1.9 16.5-3.2zm-21 11.2c5.1-.2 6.6 0 6.3 1-.3.8-2.8 1.4-7.2 1.6-5.2.2-6.7 0-6.4-1 .3-.9 2.8-1.4 7.2-1.6zm14.7 3.8c3 .1 10.9 2.7 10.9 3.5 0 1.6-4.3 1.5-8.4-.2-3.6-1.5-5-3.4-2.4-3.3zm-15.2 4.5c1 .6.9 1-.1 1.6-1.9 1.2-7.9 1.1-7.9 0 0-1.3 6.5-2.5 8-1.6zm-88.6 2.5c4 0 6.6.8 6.6 2.1 0 1-8.3 1.2-9.3.2-1.5-1.5-.5-2.3 2.7-2.3zm946.1 848c.8 0 1.5.4 1.5 1 0 .5-.7 1-1.5 1s-1.5-.5-1.5-1c0-.6.7-1 1.5-1zm-44.7 13.5c3.3-.7 4.7 1 1.5 1.9-3.2.8-12.3 1.8-12.3 1.2a33 33 0 0 1 10.8-3.1zm-99.6 16c1 .4 1.6 1 1.3 1.6-.8 1.2-6.5 1.2-6.5 0 0-1.3 3-2.2 5.2-1.6zm262.2-32.3c-5 1.4-7 4.2-4.4 5.8 1.7 1 7.6-1 9.7-3.2 2.8-3 .4-4.2-5.3-2.6zm-80.9 13.1a76 76 0 0 1-9.2.7c-3.3 0-5.3.4-5.3 1.1 0 1.5 16 .3 17.5-1.3.7-.8-.1-.9-3-.5zm-45.9 5.6c1.8-1.5 1.8-4 0-4-.7 0-3 1.5-5.1 3.1-2.1 1.7-4.5 2.8-5.2 2.6-.7-.3-1.3-.1-1.3.4 0 .6.6 1 1.4 1 .7 0 2 .7 2.6 1.5 2 2.3 4.9 1.8 5.6-1a8 8 0 0 1 2-3.6zm-109.9 22.5c-6.6.4-7.9.3-8.4-1-1-2.7 2.5-4.4 9.1-4.4 3.4 0 12-1.5 19.1-3.2 7.2-1.7 15.3-3.2 18-3.2 2.8 0 7.3-.9 10-1.8 2.8-1 7.7-2.2 11-2.7l8.4-1.7c2-.6 2.3-.4 1.9.8-.4.8-.3 2 .2 2.8 1.1 1.8 4 .5 4-1.9 0-1.3 1.9-3 6.2-5.4l6.3-3.4 1.2 3.5c.6 2 1.7 3.8 2.5 4.3 2 1.3 3.8-1 3.1-4.2-.5-2.8-.4-3 3-3 3 0 3.7-.3 3.7-1.8s1-2 4.8-2.6c2.6-.3 5.7-.9 7-1.2 1.7-.4 2.2-.1 2.2 1.6 0 1.1 1.1 2.8 2.5 3.7 2.3 1.5 2.8 1.5 7-.3 5.3-2.1 5.3-3.7.2-4.1-5.9-.5-4.3-2.2 2-2.2 7 0 16.3-4 20.6-8.9 1.9-2.2 3.6-3.1 5.7-3.1 4.2 0 3.7 1.4-1.2 3.6-2.3 1-5.5 3-7 4.2-3 2.6-3.9 5.8-1.2 4.8.9-.3 2.1-.6 2.8-.6.6 0 3.6-1.6 6.6-3.5 3-2 6.9-3.8 8.7-4.1 3.6-.7 4.6-3.4 1.3-3.4-3.4 0-2.2-1.7 1.7-2.5 3.2-.6 4-.4 5.6 2 2.3 3.1 3.5 3.1 8.1 0 3.1-2.1 4.8-2.5 10.9-2.5 6.7 0 7 .2 4.7 1.5-1.4.8-4.4 1.4-6.6 1.5-4.8 0-14.6 3.8-14 5.4.5 1.6 8 .8 14.5-1.6 3-1.1 7.2-2.1 9.2-2.2 2.5-.1 4.8-1.1 7.3-3.4 4-3.5 4.8-3.7 7.7-2.2 1.4.8 3.6.5 8.5-1 7.9-2.4 11.7-2.5 13.4-.5 2 2.4 5.8 1.9 6.2-.7.2-1.8 1.2-2.4 4.3-3 5-.8 5.4-.4 2.5 2-4.3 3.5.3 5.8 5 2.5 1.8-1.3 4.8-1.7 13.2-1.7 6 0 10.8.2 10.8.7 0 .4-1.1 1.2-2.5 1.9-2.5 1.1-3.4 2.8-1.5 2.8.6 0 1 .4 1 1 0 2.3-40 11.5-45.8 10.5-2-.4-4-.1-4.8.5-.8.8-2.7 1-4.8.6a8.8 8.8 0 0 0-6.8 1.3c-2.7 1.7-5 2-12.8 1.9-8-.1-11.7.4-23 3.4-11.4 3-15.8 3.7-28.5 4.3a76.3 76.3 0 0 0-20.5 2.5c-3 1-11.5 2.6-18.8 3.5-7.2.8-15.8 2.4-19 3.6a43.3 43.3 0 0 1-8.1 2.2c-3.3.2-3.9-2-.7-2.9 2.8-.7 5.3-3 4.2-4.1-.8-.8-6.7 2-12.6 6a17.5 17.5 0 0 1-10.8 3.4c-3.5.2-13.5 1.9-22.2 3.8-16.5 3.6-21.7 4-26 2.3a32 32 0 0 0-10.3-.4zm-167.4 15.8a62.8 62.8 0 0 1 20.7-1c0 1-2.4 1.5-10.5 2.3l-8.1 1.1c-1.2.3-2.5.1-2.8-.4-.3-.5 0-1.4.7-2zm-8.3 3.6c0 1-4.8 2.2-9.2 2.2-2 0-2.8-.4-2.6-1.3.5-1.4 11.8-2.3 11.8-.9zm-30.2 3c3.5.3 5.2 0 6.1-1.2 1.9-2.2 5.1-2 5.1.3 0 1.3-1 2-3.1 2.5-3.6.7-9.8.7-11.6 0-2.8-1.2-1-1.9 3.5-1.6zm-39.3 1.2c.8 0 1.5.4 1.5 1 0 .5-.7 1-1.5 1s-1.5-.5-1.5-1c0-.6.7-1 1.5-1zm25 1c2 0 3.5.4 3.5.9 0 1.7-5.9 2.9-7.3 1.5-1.3-1.3.5-2.4 3.9-2.4zm-42 2.8c3.7-.2 5 0 5.8 1.4.6 1 1 1.9.7 2.2-.9.8-7.4 1.3-11 .9-7.8-1-5-3.8 4.4-4.5zm-22.5 4.4c1.3.1 2.5.9 2.8 1.5.3 1-1.3 1.3-5.7 1.3-3.4 0-6.1-.4-6.1-1 0-1.1 5.8-2.3 9-1.8zm515.5-2.3c5-2.4 5.9-2.1 6.1 2.2.1 2.5-.2 2.9-2.6 2.9-1.6 0-3.4.2-4.2.4-.7.2-1.9.2-2.5 0-2.6-1.1-1.2-3.5 3.2-5.5zM591.1 1079c4.5-.8 5.5 1 1.3 2.6-4.5 1.7-10.4 2.4-10.4 1 0-1.3 3.6-2.8 9-3.6zm64.1 2.6a183 183 0 0 0 7.6-2.2c2.3-.7 5.8-.7 11.4.1 4.5.6 10.7 1 14 1 8.7 0 7 1.8-2.5 2.5-21.4 1.5-34.7 1.7-34.7.7 0-.6 2-1.5 4.2-2.1zm-77.5 2.3c.3.3.2 1-.2 1.6-.8 1.3-4.5 1.4-4.5.2 0-1.1 3.9-2.6 4.7-1.8zm907-1010.5c-1 1.3 7 6.2 10 6.2 1.3 0 2.3-.6 2.3-1.4 0-3-10.9-7.3-12.4-4.8zm-63.7 5.8c5.4-.6 12.4-.4 19.1.3 10.8 1.2 18.9.7 18.9-1.2 0-.6-1.6-.7-4-.3-3 .5-5 0-9.1-2.2-5-2.5-6.1-2.7-15.8-2.5-5.8.1-13.3-.4-17-1.2-5-1-10.2-1.2-21.6-.6-8.2.5-15.8 1.2-16.7 1.6-2.4 1-2.3 3.2.2 4 1.1.3 2.5 1.6 3.1 2.7 1 2 1.6 2 9.8 1.3 4.7-.5 12.2-.9 16.6-1 4.4 0 11.8-.5 16.5-1zm96.9 5.4c-4.2 0-5.3 1.6-1.6 2.3 4.2.8 14.7.7 14.7-.2 0-1-7.2-2.1-13.1-2.1zm43.5 5.3c-1.8-.7-3.9 1-3 2.6 1 1.7 4.6 1.3 4.6-.4 0-.9-.7-1.8-1.6-2.2zm16.6 3.2a2 2 0 0 0-1.7 1.2c-.3.8.4 1.3 1.7 1.3 1.3 0 2-.5 1.8-1.3a2 2 0 0 0-1.8-1.2zm-464 12.4c13.3-2.2 23-5.9 23-8.6 0-2-3.6-1.6-18.6 2.3-9.8 2.5-16 3.5-21.3 3.5-8.1 0-12.1 1-12.1 3.3 0 1 1.8 1.8 5.3 2.4 8 1.4 11.4 1.3 15.5-.4 2-1 5.7-2 8.2-2.5zm-36.9 3.7c-1.6-1.7-1.8-2.5-1-3.4 2.2-2.1 0-2.5-3.3-.5-3.5 2-5 6-2.6 7.4 1.9 1.2 7.6 1 8.3-.2.4-.6-.2-2-1.4-3.3zm-12.1 4.2c0-3.3-4.7-3.2-16.5 0-9.2 2.6-14.5 3.4-29.6 4.4-17.7 1.2-18.5 1.3-21.1 3.9-2.4 2.2-4 2.7-10.8 3.2-7.1.6-10.9 1.3-24.2 4.8-2.1.5-3.8 1.4-3.8 2 0 .6.7.9 1.5.5.7-.3 24.6-4.2 53-8.8 45-7.3 51.5-8.5 51.5-10zm-120.7 17.2c-1.8 0-6.3 3.2-6.3 4.4 0 1.2 3.6.6 5.8-1 2.6-1.8 2.9-3.4.5-3.4zm-395 4.5c-4.2.8-9.3 3.1-9.3 4.3 0 3 4.6 2.8 9.3-.3 4.8-3.3 4.8-5 0-4zm-41.2 5c-4.4.2-7.9 2.5-6.6 4.4.7 1.2 6.6.6 9.8-1.1 3-1.6 1.3-3.3-3.2-3.2zm-25.6 5.5c-.8-2.5-6-2.7-8.7-.4-2.6 2.5-2.2 3.2 2 3.7l4.9.5a2 2 0 0 0 1.8-.8c.3-.6.3-2 0-3zm317 911c-1.4 0-2.5.4-2.5 1 0 .5 1.1 1 2.5 1s2.5-.5 2.5-1c0-.6-1.1-1-2.5-1zm-34 2c-.8 0-1.5.4-1.5 1 0 .5.7 1 1.5 1s1.5-.5 1.5-1c0-.6-.7-1-1.5-1zm-526.7-.2c-.6.6-.7 1.5-.3 2.2 1 1.6 5 .8 5-1s-3.3-2.6-4.7-1.2zm153.2 2.2c-2.8 0-5 .4-5 1 0 .5 2.3 1 5 1 2.8 0 5-.5 5-1 0-.6-2.3-1-5-1zm-249.3-2c-7.7-1.2-14.7-1.3-14.7-.1 0 2 15.8 4.9 19.4 3.5 3-1.2 1.6-2.2-4.7-3.3zm525.3 3a1 1 0 0 0-1 1c0 .5.5 1 1 1 .6 0 1-.5 1-1 0-.6-.5-1-1-1zm158.2-2.6c2.2-.7 2.3-2 .2-2.8-3-1.2-5.3-.6-7.3 2-3.2 4-2.7 5.5 2.2 6.3.4 0 1.3-1 1.9-2.4.6-1.4 2-2.7 3-3zm-246.2 3.6a1 1 0 0 0-1 1c0 .5.5 1 1 1 .6 0 1-.5 1-1 0-.6-.5-1-1-1zm-391.4-.5c-6.9 0-9 2.1-3 2.8 6.4.7 8.9.3 8.9-1.3 0-1.2-1.3-1.5-6-1.5zm379.5 2.1c-3-1.8-3.5-1.8-6.7-.3-6 2.9-3.9 4.6 5.1 4.3 2.8 0 5-.6 4.9-1.1 0-.6-1.6-1.9-3.3-2.9zm240.4-1.6c-2.5 0-6 4.3-5 6 1.1 1.8 10 .7 10.3-1.1.4-2.3-2.4-5-5.3-5zm-280.6 5c-1.1 0-3.2-1-4.6-2-2.8-2.2-5.8-2.6-6.9-1-1 1.7 1 3.2 5.3 4 5.7 1.1 8.3 1.1 8.3 0 0-.6-1-1-2-1zm-142-3c-1.2 0-2.3-.8-2.6-2-.3-1.3-1.4-2-2.9-2-3.7 0-3.8 1.9-.2 5.5 3.9 4 3.4 3.8 5.9 2.5 2.5-1.4 2.4-4-.2-4zM728 1067c-1 1.2-1 1.8 0 3 1.6 2 7.9 2 8.6 0 1.5-3.7-5.9-6.3-8.6-3zm-98.5 1.5c6.3 0 8.5-.7 8.5-2.7 0-2.5-17-.8-19.3 1.9-1 1.1-1.7 2.6-1.7 3.4 0 2.2 4.8 1.7 6-.6.9-1.6 2-2 6.5-2zm-155.8-1.7c-2.7 1-2 2.1 2.5 4.4 5 2.5 7.8 2.8 7.8 1 0-2-8.3-6.2-10.3-5.4zm-335.2 4.5l-2.4-1.9c-2.8-2.3-4-2.4-6.6-.6-2.3 1.7-1.4 4.7 1.4 4.7 1 0 3.2-.5 4.8-1zm173.7.4c-4.2-.6-2.2-2.2 2.8-2.2 3.8 0 5-.4 5-1.5s-1.2-1.5-5-1.5c-4 0-5.1-.4-6-2-2.2-4-12.6-7.3-17.4-5.4-2.5 1-1.9 3.4.9 3.4 1.6 0 2.5.6 2.5 1.5 0 1.7-.4 1.8-8.8 1.5-3.5-.1-6.2.2-6.2.8 0 2.2 3.2 3.3 12.3 4.1 10.3 1 11.7 1.4 11.7 3.6 0 1.1 1.4 1.5 5.6 1.5 4.7 0 5.5-.3 5.2-1.8-.2-1-1.3-1.9-2.6-2zm241.8 2.8c-5.8 0-6-.1-8.4-3.8-3-4.8-5.2-6.6-7.1-5.8-1.4.5-1.4.8 0 3 2 3 1.5 3.3-4.5 3.8s-3.4 2.2 5.2 3.4c11 1.5 20.8 1.7 20.8.4 0-.6-2.7-1-6-1zm-199.4 1c3.3 0 4.7-2 2.5-3.5-.5-.3-.7-1.3-.5-2.3.2-1-.5-2.8-1.6-4.2-1.9-2.3-2.1-2.4-3-.8-.8 1.2-2.3 1.8-5 1.8-4.4 0-7 .8-7 2.1 0 .5.7.9 1.5.9s1.5.5 1.5 1c0 .8-1.4 1-4 .5-4.6-.8-8 1.2-8 4.7 0 3.8 7.3 4.4 16.4 1.2 2.1-.8 5.4-1.4 7.2-1.4zm20.5 1c-5.8-1.2-8.1-.9-8.1 1 0 2.2 5.6 3.4 10.9 2.4 4.6-1 3.8-2-2.8-3.4zm34 .5c-4.5-1.5-5-3-1-3.9 2.6-.5 3.6-.1 5.8 2.3 2.7 2.8 11 6 15.6 6 3.6 0 8.5-2 8.5-3.5 0-.8-.9-1.4-2-1.4-2.9 0-2.5-1.9.5-2.6 2.3-.6 3.2-2.6 1.2-2.6-4 0-14.6 1.5-16 2.3-1.3.7-2.3.7-3 0-1.4-1.4 0-2.9 3.3-3.6 3.3-.7 4.1-3.5 1-3.5-1 0-5.6.9-10.2 2-4.6 1-9.7 2-11.5 2-2.8 0-3.2.3-3.5 3.2-.2 2.4-.9 3.4-2.3 3.6-9.5 1.4-8.5 3 2.2 3.4l12.1.6c2.6.1 3.3-.2 3-1.5-.2-.9-1.8-2.2-3.7-2.8zm86.8 3.7c-5.4-.6-6.8-1.3-7-3.5-.6-3.4-4.3-3-4.7.5-.3 2.7-.4 2.7-6.1 2.1-4.1-.4-6-.2-6.6.7-1.4 2.3 2 3 14.8 3 9.9 0 12.8-.3 12.5-1.3-.3-.6-1.5-1.3-2.9-1.5zm-35.5-2c-4.6.3-5.2 2.6-1.4 4.5 3.3 1.6 3.4 1.6 5.5-.7 2.5-2.8.9-4.2-4.1-3.8zm91.9 6c-1.8-1-3-1-5.9.3-4.1 1.7-8 2-8.9.6-1-1.6 2.5-4.1 5.6-4.1 2.4 0 3-.4 2.7-1.8-.2-1.2-1.8-2-6-2.6-7.2-1.2-8.8-.1-7.1 4.4.7 2 .8 3.2.1 3.6-.5.3-24.2.9-52.6 1.1-53 .6-95.8-.3-192.7-3.7-66.5-2.4-135.5-4.3-148.5-4.1-5.2 0-18.5-.6-29.5-1.5a224 224 0 0 0-25.1-1c-2.8.3-8.7.1-13-.4-14.6-1.9-53.8-5-62.6-5H0V163.9l16.8-.7a168 168 0 0 0 22.7-2.1c7.2-1.8 23.2-3 26.8-2.1 3.3.8 5 4.2 6.7 12.8.8 3.8 1.9 6.8 2.5 6.8.6 0 2-2.6 3-5.8 2.2-7 6.2-15.1 7.8-15.8.7-.2 11.1-.6 23.2-.9 12.1-.3 25-.7 28.5-1 3.6-.2 12.8-.6 20.5-.8 7.7-.3 20.3-1.5 28-2.6 9-1.3 19.1-2 28.5-2.1 11.8 0 15.7-.4 21-2 5.2-1.7 7.9-2 13.2-1.5 5.1.5 9.1.2 16.8-1.5 5.6-1.2 11.4-2 12.8-1.7 1.6.3 3.5 0 4.6-.9 3.2-2.3 18.3-1.9 24.3.7 3 1.3 7.8 2.3 12.5 2.6 8.8.6 9.4 1.4 4.8 5.8-2.4 2.2-3 3.7-2.8 6 .3 2.5.8 3 3.3 3.3 1.6.1 5.5-.4 8.5-1.1 4.4-1.1 5.6-1.9 6-3.8.8-3.2 4.8-3.7 8-1 2.8 2.5 9.5 2.8 12.4.6 3-2.2 6.2-1.8 8.3 1l1.8 2.5 6.4-1.6c6-1.6 6.5-1.6 7.7 0 1.1 1.6 2 1.7 7.6.7 4.2-.7 7.5-.8 9.7-.1 2.6.7 4 .5 6.5-.7 2.3-1.3 6-1.7 14.8-1.8a63.7 63.7 0 0 0 25.6-4.6l6-3.2 3 2.2c2.5 1.7 3.5 2 5.9 1l4-1.4c1.1-.4 1-1-.1-3.4-1.8-3.3-1.2-4.5 1.5-2.8 1.4.9 2.8.8 6.2-.5 4.5-1.7 4.9-1.6 14.4 2.3 2.6 1 3.4 1 4.7 0 3-2.5 1.9-4.1-2.9-4.1-3.9 0-4.5-.3-5-2.5-1.3-4.7 2.3-6.2 5.5-2.3 1.7 2.1 2 2.2 9.1 1.2 4-.6 10.2-2.2 13.6-3.6 5.4-2.2 6.4-2.4 7.4-1.1.8 1 2.8 1.3 6.3 1 4.3-.2 5.1-.5 5.1-2.2 0-3 6.6-3.4 9.3-.5 1.8 2 2.2 2 5.5.6 3.4-1.4 3.8-1.3 8.6 1.2 4.3 2.3 5 3.1 5 5.6l.1 2.9 6.2-.7c3.4-.3 6.6-1 7.1-1.5 1.6-1.6-.3-3.1-3.8-3.1-5.4 0-7.3-6-2.4-7.5 2.4-.8 4 .1 3.3 2-.9 2.2 1.3 2.6 5.3 1 2.3-1 5-1.4 7-1 2.8.5 3.3.3 3.3-1.3 0-2.1 1.9-2.6 14.6-3.8 7.2-.7 7.2-.7 8.5 2.2 1.6 3.3 3.4 3.9 7.2 2.5 3-1.2 3.6-4.1.8-4.1-1 0-2.4-.7-3-1.5-1.5-1.7-1-2 5.2-3 2.3-.4 3.7-1.2 3.7-2 0-.9-.5-1.5-1-1.5-.6 0-.8-.5-.5-1 1-1.7 10.5-1.2 11.1.5.5 1 2.2 1.5 6.2 1.5 4.1 0 6.6.6 9.9 2.5 4.4 2.7 8.3 2.6 8.3 0 0-.7-2-2.5-4.5-4-2.5-1.4-4.5-3.3-4.5-4 0-2.3 2.5-1.8 5.8 1 3.7 3.1 5 3.1 9.6 0 4.5-3 6-3.1 7.8-.3 1.5 2.3 1.6 2.3 5.2.5 4-1.9 13-2.3 17-.7 4 1.5 5.6.3 5.6-4.2 0-3.9 0-4 2.8-3.3a12 12 0 0 1 4.3 2c1.1 1 4.3 1.5 11.2 1.5 5.3 0 9.7-.3 9.7-.6 0-.4-.8-1.3-1.7-2-1.7-1.3-1.7-1.5 0-2.5 1.4-.8 1.7-1.8 1.2-4-.7-3-.6-3 2.7-2.7 2.8.2 3.3.7 3.3 2.8 0 1.7.7 2.6 2 2.8 1.1.2 2.5 1 3.2 1.8.7 1 2.5 1.4 5.5 1.2 4-.3 4.3-.5 4.1-3-.2-2.7 0-2.8 4.2-2.8 2.4 0 5.5.4 6.9 1 3.5 1.3 4.6-.8 1.5-3l-2.4-1.9 2.8-1c1.9-.7 5.8-.7 13.2.1 9.4 1 11.4 1 17.5-.6 5.4-1.4 7.3-1.5 9-.6 3.3 1.7 11 .3 13.6-2.5 1.9-2 3.4-2.3 14.2-3 6.6-.4 12.5-.4 13.1 0 .6.3 2.3-.3 3.7-1.4 1.5-1.2 3.3-2.1 4-2.1.7 0 2.5-1.8 4-4 3.4-4.7 4.6-5 3.8-1.1-.5 2.3-.2 3.1 1.4 4 3.3 1.7 4.4 1.3 4-1.6-.3-2.5.1-2.8 5.5-4.4 3.2-1 7.3-2.5 9.2-3.3 4-2 8.8-2.1 8.3-.4-.3.7-3 1.7-6 2.3-3.2.5-6.3 1.6-7 2.2-.6.7-1 1.3-.7 1.4l4.9.3c2.5.1 6 .6 7.7 1 2.6.7 3.3.5 4.3-1.4.6-1.2.9-3 .5-3.8-.3-1-.5-2-.3-2.2.2-.3 4.7-.5 10.1-.5 9.6 0 10 0 12-2.8 2.5-3 6.1-3.6 7-1.2.4.8 1.6 1.5 2.7 1.5 1.2 0 3 .5 4 1 3 1.6 5.8-.4 6.2-4.3.3-2.7.7-3.3 3.2-3.5 2.7-.3 2.8-.2 2.2 2.3l-.7 2.8 4.8-.6c2.6-.2 6.2-1 7.8-1.8l3-1.3-3.2-.4c-3.5-.4-4.6-2.2-1.4-2.2 1 0 3.8-.7 6.2-1.5 5-1.8 7.2-.7 5 2.6-2.7 4.4 1.5 4.6 12.8.7 3-1 6-1.8 6.8-1.8 2 0 1.5 3.7-.9 6-3 2.7-1.7 3.5 4 2.4 4.6-.9 4.7-1 5-5 .3-3.4.9-4.3 4.5-6.5 2.3-1.5 5.3-3 6.7-3.4a9.3 9.3 0 0 0 4-2.6c1.5-1.9 1.8-2 34.9-6.4a28 28 0 0 0 10-2.5 38 38 0 0 1 11.7-3.1c9.8-1.7 11-1.7 12.5-.3s2.5 1.4 7.3.3a17 17 0 0 0 7.7-3.5l2.2-2.3-2.7-1c-1.5-.6-2.4-1.6-2.1-2.1 1-1.5 4.8-1.2 7 .5 1.1.8 4 1.4 6.3 1.5 3 0 4.2.4 4.2 1.5 0 2 .9 1.9 7.5-.6 3-1.1 6.4-1.8 7.4-1.4 1.4.4 2.3 0 3-1.5 1-1.5 2.2-2 5.5-2 2.5 0 8-.7 12.2-1.5 4.6-.9 9.9-1.2 12.9-.9 6 .7 12.9-2 13.8-5.6.4-1.7 1.3-2 5.3-2 3 0 5.4.6 6.6 1.6 1.5 1.4 2.3 1.5 4.4.5 1.3-.6 6.3-1.1 11-1.1 7 0 9.4-.4 12.5-2.2 3.2-1.8 4.3-2 6.4-1 4.2 2 8.6 1.5 9.2-.9.5-1.8 1-2 5.2-1.4 4 .5 5 .3 6.5-1.4 2.3-2.5 8.7-2.9 10.6-.6 1.7 2 4.8 1.9 13.6-1 4.2-1.4 9.6-2.5 12-2.5 2.5 0 7.5-.4 11.2-1 3.7-.5 15-1.4 25.2-2 10.2-.6 21.3-1.6 24.6-2.2 5.2-1 6.8-.9 10.3.5 5.1 2 8.5 2.1 11.4.2 1.7-1.1 3.1-1.2 6.7-.4 5.5 1.3 11.6.6 14-1.5 2.2-2.1 39.7-4.4 44.5-2.8 4.3 1.5 18.4.8 22.1-1.1 2.5-1.3 5.9-1.5 19.5-1.1l53.4 1.4c34.4 1 37.2 1.2 39.7 3 2.3 1.7 4.3 2 14.1 2 6.3 0 14.2.3 17.6.6l6.1.7v940.9l-9.2-.4a927 927 0 0 0-77.8 2.7c-41 3.6-83 9.5-132.5 18.5-44.3 8.1-125.6 25.3-129.5 27.4a35 35 0 0 1-9.5 2c-3.8.4-9 1.6-11.5 2.7a35.9 35.9 0 0 1-10.3 2.3c-3.4.2-6.5 1-7.5 2-1 .9-3.4 1.4-6.2 1.3-2.5 0-9 1-14.3 2.2-8.3 2-10 2.7-11 4.7-1.2 2.7-3.5 3.2-4.3.9-1.1-2.8-8.4-1-8.4 2 0 1.9-2.6 2-3.7 0-.7-1.1-2.5-1-11.8 1.1-16.8 3.7-39.4 8.2-49.6 9.9-10.4 1.6-13.3 3.1-15.3 7.9-1.8 4.4-3 5-5.1 2.6-2.5-2.7-6-2.5-7.8.4-1.3 1.9-3 2.6-8.6 3.6-9 1.5-11.7 1.1-11.3-1.5a7.6 7.6 0 0 1 2.4-3.8c2.8-2.4 1.6-3.3-3-2.1-4 1-5.5 4.2-3.2 7 1 1 .9 1.5-.3 2-3.4 1.3-5.2 0-4.9-3.4.2-2.2-.2-3.4-1.2-3.8-2.7-1-18 1.5-18.9 3.1-.6 1.2-3 1.5-11.2 1.5-9.8 0-10.5.1-10.5 2 0 1.7-.7 2-4.3 2-2.3 0-6-.5-8.2-1.1-6.4-1.8-40.4 1.7-46.7 4.8-5.4 2.6-6.2 5-2 5.5 1.6.2 2.8 1 3 2 1 5.6-10.1.2-11.4-5.4l-.6-3-6.4.5c-3.5.3-7.3 1-8.4 1.7-1 .6-4.6 1.2-7.9 1.4-3.3.2-7 1-8.2 2-3.4 2.3-7.5 2-8.2-.5-.5-2-1-2-7.9-1.3-4 .3-7.5.8-7.7 1-.2.2.3 1.2 1.2 2.2 2.3 2.6 2.1 3.7-1 5-3.5 1.7-5.7.8-7.7-3.4-1.6-3.5-1.8-3.6-5.9-3-12.2 1.5-12.8 1.8-10.5 5.6 1 1.6 1 2.4 0 4.2-1.3 1.9-1.2 2.3.4 3.5 2.2 1.6 2.7 1.6 7-.2 4.6-2 7.4-2 7.4 0s-5.8 3.2-20 4c-6.9.3-16 1-20.2 1.7-5.7.8-8 .8-9 0-1-.9-2.7-.7-6.6.5-4.8 1.6-5.4 1.6-8.7 0-3.3-1.6-3.6-1.6-8.7.8-5.6 2.6-9.3 3-11.8 1.5-1.7-1-1.7-1.1 4.3-4 3.8-1.8 4.7-2.7 4.5-4.4-.6-3.9-3.6-3-9 2.7-5.3 5.4-5.4 5.5-13.8 6.7-10 1.5-12.5 1.2-12.5-1.4 0-3.7 5-6 13.6-6.5 5.3-.2 7.9-.7 7.6-1.4-.5-1.6-4.3-2.5-11.2-2.6-7.9-.1-10.3.6-10.7 3.2a2.8 2.8 0 0 1-2.5 2.5c-1.2.2-2.7 1-3.3 1.8-.7.7-3 1.4-5 1.4-4.4 0-6.1 1.7-3.7 3.5 1 .7 1.7 1.5 1.7 1.9 0 .3-3.8.6-8.5.6-5 0-8.5-.4-8.5-1s.5-1 1-1c.6 0 1.5-1.1 2-2.5.6-1.5 1.7-2.5 3-2.5 2.8 0 2.5-1.1-1.2-4.7-3.7-3.5-6.9-4.7-9.8-3.8-2.4.7-2.5 2.2-.5 4.5 1.4 1.5 1.4 1.8 0 3-2 1.6-2 4.6 0 5.4 3 1.1 1.4 2.6-3 2.6-4.2 0-4.6-.2-6-3.6-1-2.6-2-3.4-3.2-3-1 .2-4.6.8-8.1 1.1-4 .5-6.5 1.2-6.9 2.1-.6 1.6-1.3 1.7-3.3.4-1.2-.7-1-1.3 1-3.4l4.3-4.6c1.5-1.8 2.5-2 6.3-1.4 5.5.8 6-1 .8-4.4l-3.5-2.2-4 2c-2 1-5 2-6.5 2-2.1 0-2.5.4-2.1 2 .6 2.4-1.6 5-4.3 5-1 0-2.7 1.2-3.8 2.7l-2 2.8-3.9-2.1c-2-1.2-6-2.4-8.8-2.8a64 64 0 0 1-7.3-1.2c-2.1-.6-2.3-.4-2 2.2.3 2.6.7 3 4.6 3.2 4.8.3 5.8 2.2 1.1 2.2-4 0-6.9 1.6-6.9 3.9 0 2.2-5.3 3.1-16.9 3-12-.1-17.5-1.1-18-3.2-.2-1.5.3-1.7 3.8-1.1 3.3.5 4.2.3 4.7-1.1 1.1-2.8-2.3-4.8-7.1-4-4.9.7-6.2 1.9-4.6 4 1 1.2.8 1.5-1.4 2-1.8.5-3 .3-3.6-.6-1.2-2-1.1-5.3.3-6.7 2-2 0-2.6-3.8-1.4-3 .9-4.3.8-6.5-.4-3.9-2-5.2-1.8-4.6.6.7 2.9-.7 3.3-3.3 1-2.4-2.1-4.8-2-8.5.6a8 8 0 0 1-3.7 1.4c-2 0-2.4 2.6-.5 3.3.6.3-1.3.5-4.3.4-3-.1-5.6.2-5.8.7-.2.5 2 1.7 4.8 2.5 8.8 2.7 6.7 4.5-3.5 3.2-2.7-.4-6-1.2-7.2-2zM184.5 1099c5.9 1.1 3.9 2.6-3.5 2.6-3.8 0-7-.4-7-1 0-1.4 6.4-2.3 10.5-1.6zm38 1.6c1.4 0 2.5.4 2.5 1 0 .5-1.1 1-2.5 1s-2.5-.5-2.5-1c0-.6 1.1-1 2.5-1zm-172 0c.8 0 1.5.4 1.5 1 0 .5-.7 1-1.5 1s-1.5-.5-1.5-1c0-.6.7-1 1.5-1zm198.5 1.8c0-.8 4.7-1 17.3-.5 9.4.4 20.2.7 24 .7 3.8 0 6.7.4 6.7 1 0 1-6 1-35.8.2-8.2-.2-12.2-.6-12.2-1.4zm61 1.2c2.8 0 5 .4 5 1 0 .5-2.3 1-5 1-2.8 0-5-.5-5-1 0-.6 2.3-1 5-1zm-245-2c4.5 0 6 1.4 3 3-2.2 1.2-1.9 1.2-4.7-.2-3.5-1.7-2.8-2.8 1.6-2.8zm24.8 2.5c.2.2.1.8-.3 1.4-.7 1.3-7.5 1.5-7.5.2 0-.9 7-2.4 7.8-1.6zm88.4 3c2.4-1 7-.2 7.6 1.2.4 1.5-5.5 1.8-7.8.3-1.2-.8-1.2-1 .2-1.5zm-13.8-1c2.5.3 4.6 1 4.6 1.4 0 .4-1.8 1.5-4 2.3-3.6 1.5-4 1.5-5.6-.3-2.6-3-.6-4.3 5-3.5zm-134.9 4.1c.8.3 1.5.8 1.5 1 0 .2-.7.4-1.5.4s-1.5-.4-1.5-1c0-.5.7-.7 1.5-.4zm-28.6-6.6c.6 2.3 1.2 2.5 6.9 2.8 4.2.2 6.2.7 6.2 1.6 0 1.9-4.5 3.6-9.5 3.6H0l.1-5.3c0-3.8.3-4.5.8-2.7zm35.3 7c1.6-2.5.2-5.2-3.3-6.1-1.3-.4-6.6-.8-11.6-.8-6.7 0-9.3-.5-9.3-1.4 0-.9 3.8-1.3 15-1.4 13.6-.2 18.4.6 13 2-2.8.7-1.7 3 3 5.5 4.8 2.8 8 2.8 8.7.2.3-1.1 1-2 1.4-2a63 63 0 0 1 13.9 7c0 1-4 2-7 1.8l-12.2-.8c-12.3-1-13.3-1.3-11.6-4zm521.8 4c0-.6 5-1 11.6-1 10.2 0 11.5.2 10.4 1.5-1.2 1.5-8.5 1.8-18.3.8-2-.3-3.7-.9-3.7-1.4zm-374.4.2c1 .1 2 .9 2.2 1.5.5 1.6-5.4 1.8-6.3.3-.8-1.2 1.7-2.3 4.1-1.8zM96 1116c-9 2.4-12.8 2-19.3-2.1-3.2-2-5.6-4.1-5.4-4.8.5-1.5 5.5-3.9 6.7-3.1.6.3 1 1.5 1 2.5 0 1.4 1.1 2.2 4 3 3.7 1 4.3.9 7.1-1.5 7.1-6 29.9-8.2 29.9-3 0 1-1 1.4-3.6 1.2-4.2-.2-5.7 1.7-2.2 2.9 1.3.4 9.4.7 18 .8 14.3 0 15.8 0 15.8-1.6 0-3-3.3-3.9-10.6-2.9-7.1 1-8.4.8-8.4-1.4 0-4 16.5-4 22.5-.1 2.5 1.6 2.5 1.9 1.1 4-1.7 2.7-1.2 3.6 2 3.6 3.6 0 3.7 1.8.2 3.6-5.5 2.9-19.5 2.8-30.3 0A56.7 56.7 0 0 0 96 1116zm-42.2 6.2c7.5.6 7.7.7 6.7 2.2-.8 1.3-7 1.3-10.7 0-4.9-1.8-3-2.9 4-2.2zm-38.8 6.3c1.1 0 2 .4 2 1 0 .5-.9 1-2 1s-2-.5-2-1c0-.6.9-1 2-1zm92-1.6c1.8 1 3 2.4 3 3.6 0 3-2.3 2.4-4.9-1-2.8-3.9-2.2-4.7 1.8-2.6zm110 4c0-2 11.3-2 12.9 0 .6.7.8 1.6.4 2-.8.8-11.8.8-12.6 0-.4-.4-.7-1.3-.7-2zm-68.2.6c1.2 0 2.2.4 2.2 1 0 1.2-1 1.2-3 0-1.2-.8-1-1 .8-1zm-21.5-1c5.5 0 6.3-.3 7.2-2.3.8-1.7 1.8-2.2 4.8-2.2 4.8 0 5.2 1.6.7 2.8a13 13 0 0 0-5.3 2.8c-1.7 1.9-2.5 2-10 1.2-6-.7-4.2-2.3 2.6-2.3zm65.7-.5c1.3-1.6 9.5-2.1 10.3-.8.6 1-1 5.3-2 5.2l-2.8-.6c-5.5-1.4-6.8-2.3-5.5-3.8zm-18.5 0c1.1-.3 3.3-1.3 4.8-2 3.6-1.9 4.2-1.9 6.1 0 2.6 2.6 2 4.5-1.5 4.5-1.7 0-3.9.4-4.9 1-1.4.7-2.4.5-4.2-1-2.2-1.8-2.2-1.9-.3-2.5zm-149.4.5c2 0 7.9 2.3 7.9 3.2 0 .4-.3.7-.7.6l-3.5-.5c-2.9-.5-6.1-3.3-3.7-3.3zm178 7.5c3 1 2.3 2.5-1.1 2.5-1.6 0-3-.4-3-1 0-1.5 1.9-2.2 4-1.5zm1320.5-121.4c-1-3-5.2-3.8-7.6-1.6-2 1.8-2.7 5.5-1.3 6.8 1.2 1.3 4.8.7 7.2-1.2 1.7-1.3 2.2-2.4 1.7-4zm-147.6 56.6c0-1-2.6-.8-15.7.9-3.3.4-5.3 1.1-5.3 2 0 1.7 2 2.4 5.5 1.7 1.7-.3 4.6-.7 6.5-.8 4-.3 9-2.4 9-3.8zm-105.7 13.9c-1-1-4.1-.7-8.3 1-4.2 1.7-5.3 4-2.2 4.7 3.1.8 4.3.7 7.1-.8 2.9-1.4 4.5-3.8 3.4-5zm35.3 2.4c-4.3 2-5.5 3.7-4 5.3 1 .9 7.7-2 9.2-4 2.2-3-.4-3.7-5.2-1.3zm-267.2 6.4c-5.2 1.3-2 3.2 6 3.5 3 0 3.7-.2 3.4-1.7-.3-1.9-5.3-2.8-9.4-1.8zm226.2 1.6c-3.4 0-5.6 1.5-5.6 3.8 0 1.1 1 1.3 4.3.8 2.3-.4 4.6-1.1 5-1.6 1.6-1.5-.3-3-3.7-3zm-87.3 8c-2.1 0-5-.7-6.3-1.5-1.4-.8-4-1.5-5.8-1.5-2.7 0-3.3.4-3 1.7.2 1.3 2 2.1 5.8 3l6 1.2c.2 0-.6 1.1-1.8 2.4-1.2 1.3-2 2.6-1.5 3 1.2 1.2 4.7-.4 7.6-3.4 3.6-4 3.4-4.9-1-5zm-36.7 9c-4.4 1-6.1 2.3-5.2 3.9 1.1 1.7 6.2 1.3 8.7-.8 3.3-2.7 1.6-4.3-3.5-3.1zm-784.7.7c-.8.8-.4 1.5 1.7 2.7 3.5 1.8 8.7 2.1 8.2.4-.7-2-8.6-4.4-10-3.1zm62.5 6.1c-1.5 1-.4 1.1 5.6 1 4.4-.2 7.4-.7 7.2-1.3-.4-1.4-10.4-1-12.8.3zm541.5-3c-3.2.2-6.9 2.6-6.9 4.4 0 1 6.6 0 9.3-1.4 2.8-1.5 1.4-3.3-2.4-3zm-702.5 15.4c-3.7-.6-7-.9-7.5-.6-1.7 1 .6 3.7 4.5 5.5 4.9 2.2 6.5 2.3 9 .4 3.1-2.4 1.2-4.1-6-5.3zm102.5 14.3c-4.6-.6-7.9 0-7.9 1.5s15.6 2.5 16.5 1c.6-1-1.2-1.5-8.6-2.5zm-82.5-.5c-6 0-7 1.3-2.1 2.8 8 2.6 12.7 2.8 12.7.7 0-2.2-4.1-3.5-10.6-3.5zM263 1153c-8-.7-18.6-1-23.5-.8-7 .5-10.1.3-14-1a25.8 25.8 0 0 0-12.3-1c-8.2.7-43-1.4-43.8-2.8-.6-1 3.6-2.7 8.3-3.5a8 8 0 0 1 5.7 1c3.3 2.2 5 2.1 9.6-.5l3.9-2.3 2.5 2.4c2.6 2.4 2.6 2.4 6 .6 3.2-1.7 6.9-1.8 10.8 0 1.3.5 1.8.2 1.8-.9 0-.9-1.1-1.9-2.5-2.2-1.4-.3-2.5-1.3-2.5-2 0-1.2 3.1-1.4 17-1.4 14.3 0 17-.2 17-1.5 0-.8-1.4-2.2-3-3-1.7-.9-3-2-3-2.4 0-.4 7-1.1 15.8-1.5 13.2-.5 16.5-.4 20.5 1 4.7 1.6 4.9 1.6 7.1-.5 3-2.9 8-2 7.2 1.1-.5 2-.2 2 4.7 1.2 2.9-.4 13-1 22.7-1.2l30-.9c7.4-.3 15.8 0 20.6.7 7.8 1.1 8.4 1 12.1-1.1 4-2.3 4-2.3 9.6-.5 4.1 1.3 7.3 1.6 11.4 1.1 3.2-.3 8.6-.5 12-.5 5 0 6.5-.3 7-1.6 1-2.5-1.5-3.4-9.3-3.4-6.4 0-7.3-.3-8.7-2.4-3-4.5-11.2-4.2-10 .4.5 2 .2 2-4.3 1.6a805 805 0 0 0-67-2.6c-25.8-.5-51.3-1.3-56.7-1.6-9-.7-10-1-10.7-3-1-2.3-1.1-2.3-20.7-2.6-14.8-.2-20.3 0-22 1-3.3 2-10.2.4-13.4-3l-2.7-3-3 1.8c-2.4 1.3-3.5 1.5-4.3.7-1.8-1.8-.3-3 6.4-5.2 5-1.7 7-2 9.7-1.1 2 .5 6 1 9.2 1 3.2 0 5.8.4 5.8 1 0 .5-.9 1-2 1s-2 .7-2 1.5c0 1.1 1.2 1.5 5 1.5 4.1 0 5.5-.5 7.3-2.4 1.9-2 3.4-2.5 8.7-2.8 3.8-.2 6.6.1 6.8.7.1.5-.7 1.1-1.8 1.3-1.2.2-2 .9-1.7 1.5.6 1.9 6.2 2 10.3 0 3.3-1.4 6.9-1.6 24.4-1.4 17.7.2 21.4.5 27.2 2.3 5.9 1.9 7.2 2 10.6.9 3-1 10.3-1.1 35.3-.3 17.3.5 32.2 1.3 33.1 1.7 3 1.2 2 2.5-2.2 2.5-2.2 0-4 .4-4 1 0 2 9.4 1 14.8-1.5 5-2.3 5.8-2.4 13-1.5 11.9 1.6 49.5 3 61.2 2.3 10.3-.6 10.6-.5 13.7 2 3.6 3.1 4.5 3.2 7.7 1.1 2-1.3 3.9-1.4 12.8-.4a526 526 0 0 0 61.3.6c9.9-.5 20.5-.4 25.5.2 5.5.7 10.5.7 14.5 0 5-.8 7-.6 11.2.8 4.7 1.6 6.4 1.7 18.5.5a88 88 0 0 0 16.3-2.6c2.4-1 6-1.2 17-.6 10.8.5 14.8.4 17.5-.6 3-1.2 4.2-1.1 8 .2 4.9 1.7 9 2 9 .5 0-.6-.7-1-1.5-1s-1.5-.5-1.5-1.1c0-.8 1.9-1 6.2-.6 3.5.4 16 .2 27.8-.3 23.4-1.1 102.2-3.4 121.5-3.5 6.6 0 15.7-.7 20.2-1.5 6.4-1 9-1.1 12-.2 2 .6 4.3.7 5.2.3 2-1.1 10.2-2.9 17-3.7 5.1-.6 5.3-.6 4.6 1.6-.7 2.1-.5 2.2 3.6 1.6 2.4-.4 8.4-.9 13.2-1 6.5-.3 9.3-.8 10.7-2 1-1 3.4-1.9 5.2-2 2.9 0 3.3.2 3 2.1-.5 3.2 3.1 3 7-.3 2-1.7 3.9-2.4 5.2-2l8.8 2.2c5.5 1.4 7 1.5 8.2.5 2.1-1.8 1-3.1-2.5-3.1-1.6 0-2.9-.5-2.9-1 0-1.4 5.6-1.2 16.2.6a65.4 65.4 0 0 0 17.5.9c8.5-.7 10.6-1.8 5.3-2.9-1.7-.3-3-1-3-1.5 0-1 1.5-1.6 7.2-2.6 3.5-.6 3.8-.4 3.5 1.7-.2 2 .2 2.3 3.3 2 4-.4 8.5-3.2 8.5-5.5 0-.9.4-1.9.7-2.3.4-.4 7.1-.8 14.9-1 11.2-.1 14.2.1 14.6 1.2.6 1.6 4.6 1.8 7.4.3 1.1-.6 2.4-2.2 3-3.6.9-2.3 1.3-2.5 5.3-1.9 2.8.4 6.6.1 10.3-.8 3.2-.8 10.8-2.2 17-3.1 6-1 15-2.4 20-3.4 7.5-1.6 9.1-1.6 10.9-.5 3.2 2.2 15.4-.4 15.4-3.2 0-2.1 3-3 18-5.9l25.3-5.1c10-2.2 12.4-2.4 14.8-1.4 2.5 1 3.2 1 5.8-1.2a22 22 0 0 1 9.2-3.7l20.9-4.6c8-2 24.3-5 36.2-7 11.9-2 24.3-4.5 27.5-5.6 3.2-1 16-3.8 28.3-6 48-8.6 59.8-11 67-13.4 8.8-3 18.8-5 37-7 7.4-1 23-3.2 34.5-5.2 21.5-3.6 42.4-5.5 57.5-5.3 7.3.1 8.6.4 9.9 2.2 1.2 1.7 2.1 2 6.4 1.4 3-.3 5.6-.1 6.3.5 1.8 1.5 3.3.3 2.7-2.1-.4-1.5-1.4-2-4.2-2-4.5 0-8.1-1-8.1-2.1 0-.5 10.3-1 23-1h23v2.8c0 2.7-.1 2.8-6.3 2.8-6 0-6.2 0-6.5 2.9-.5 4 1 5.1 4.1 3.1 2.5-1.6 2.8-1.6 5.7.1 2.9 1.8 3 2.2 2.8 6.9l-.3 5-12.5.6c-6.9.4-19.5 1.6-28 2.8-8.5 1.1-19.8 2-25 2-11.5-.2-19.2 1-46.2 6.7a175.7 175.7 0 0 1-27.6 4.4c-5.4 0-8.3.6-12.4 2.5a25 25 0 0 1-11.4 2.5c-3.4 0-14.5 1.8-24.7 4a424 424 0 0 1-24 4.6c-4.8.6-5.6.4-8.2-2-1.5-1.4-3.4-2.6-4.1-2.6-1.9 0-1.8 2.4.1 4 .9.7 1.2 1.6.8 2-.4.5-5.8 2-12 3.5a50.2 50.2 0 0 0-15.5 5.6c-3.6 2.4-5 2.8-8.3 2.3a15 15 0 0 0-8.9 1.6c-2.6 1.2-5.7 2-6.8 1.7-1.3-.4-2.2.1-2.8 1.8-.6 1.7-2 2.5-5 3-2.4.4-4 1.2-4 2 0 .9.6 1.5 1.4 1.5.7 0 2.5 1 4 2 3.2 2.6 4.6 1.9 4.6-2.4 0-4.2 2.8-5.6 11.1-5.6 5.3 0 6.2.3 6.6 2 .9 3.3 4.3 2.1 5.7-2 1.3-4 3.1-5 3.9-2 .7 2.6 2.4 2.5 8.1-.5 2.6-1.4 6-2.5 7.5-2.5 1.6 0 5.5-1.6 8.6-3.5 5.7-3.4 12-5.4 13.2-4.1.3.3-1 1.3-3 2-4.5 2-4.7 3.1-.6 4 4.5.9 4.9.8 4.9-1 0-.8.8-1.8 1.7-2.1 1-.4 3.3-2 5.1-3.5 3.4-3 6.2-3.4 7-1.1.1.6-.7 1.3-2 1.5-2.4.3-5.5 5-6 9.4-.3 2.9-.3 2.9 5.2 2.9 4.3 0 6.6.6 10.2 2.8 5 3 8.3 3.2 8.3.7 0-1-1.3-1.6-4.2-1.8-3-.2-4.7-1-5.7-2.4-2-2.8-1.4-3.5 3.4-4.3 2.2-.4 4.3-1.3 4.8-2 .6-1.2 1.4-1.2 5.2 0 2.4 1 5.4 1.4 6.6 1 3.4-.8 3.8 1.1 1 4-2.1 2.1-3.3 2.5-5.6 2-3.5-.8-3.8 0-.9 2.4 2 1.6 2 1.8.4 3.4-1.2 1.2-3.4 1.7-8 1.7-3.4 0-7.9.7-9.9 1.5-4.3 1.8-18.6 3.2-18.6 1.8 0-.5.5-1.4 1.1-2 2.1-2.2 0-3-4.8-2.2-5.7 1-7.8 2.7-4.5 3.5 4 1.1 2.3 2.1-4.8 2.8-3.8.3-9.2 1.5-12 2.6-5.7 2.3-7 2.4-7 1 0-2.2 6.5-5 11.8-5 3.8 0 5.4-.4 5.9-1.6.3-.8.1-2-.4-2.5-1.3-1.3-11.7.7-17.1 3.3-3.7 1.7-4.3 2.4-4 4.6.3 2.4 0 2.7-4.2 3.3a524 524 0 0 0-37.4 6.5c-3.3.9-10 2-15 2.5-5 .6-27.9 4.1-50.8 8-54.8 9-70 11-83.3 11-8.3 0-13.8.6-22.3 2.5a231 231 0 0 1-21 3.6c-9 1-11.6 1-24 .6-5.3-.1-32 2.8-36.9 4.1-3.6 1-4.8.4-3.2-1.5 1.9-2.3 0-3.6-4-3-4.3.9-8.8 3.1-11.8 5.8-2 1.9-3 2-10 1.4a32 32 0 0 1-10.1-2.2c-2-1.3-2.9-1.3-6-.3-2.2.8-9.4 1.3-17.7 1.4a49 49 0 0 0-18.3 2c-3.5 1.4-4.7 1.5-7.2.5-1.6-.7-3.4-.8-4.2-.4-.7.5-13.9.9-29.3.9-21.5 0-28.5.3-30.3 1.3-2 1.2-2.6 1.1-4.2-.3-1.4-1.3-2.7-1.5-5.2-1-1.8.4-9.6 1.2-17.3 1.6-7.7.5-17.4 1.2-21.5 1.7-5 .6-8.8.6-11.3-.1-3-.9-4.4-.8-6.6.5-2.3 1.4-4.2 1.5-13.6.7-13-1.2-31.7.2-44.5 3.3-7.2 1.7-13.6 2.2-40.5 2.8-17.6.5-35.4 1.3-39.5 2-7.7 1-14 .6-14-1 0-.6 2.2-1 5-1 3.7 0 5-.4 5-1.4 0-2.2-.8-2.4-9.8-2.7-6.7-.3-8.5 0-10 1.4-1.4 1.5-1.5 2-.3 2.6.8.5 1 1.4.6 2.1-.6.9-2.6 1-7.1.7-4-.4-9.2 0-14.1 1a77 77 0 0 1-20.3.9c-22-1.1-26.2-1.7-26.7-3.7-.6-2.2-7.3-3.4-11.8-2.1-3.7 1-4 2.6-.5 3 1.4.2 3 .8 3.4 1.2 1.8 1.7-2.6 2.3-8.9 1.1-5-.9-7-.8-10.1.2-4 1.4-9 1.5-72.9.6-11.6-.2-25 0-30 .5-5.8.6-10.3.5-12.8-.2a10 10 0 0 0-6.5 0c-1.7.6-8.2.7-18 .3-14.3-.7-15.2-.9-14.7-2.6.8-2.3-2.4-2.6-5.8-.6-1.7 1-5.1 1.2-14.7.7-11.6-.6-12.7-.5-15.5 1.4-3.7 2.5-10.6 2.7-43.5.7-20-1.2-23.5-1.1-31.8.3-10.6 1.8-18 1.8-38.2 0z"/>
</defs>
</svg>
