<svg xmlns="http://www.w3.org/2000/svg" viewBox="0 0 54 54">
  <path fill="none" d="M-.2.1h53.8v53.4H-.2z"/>
  <path d="M48.1 26.3l-.1 8.8c-.2 3.9-1.3 6.9-3.5 9s-5.1 3.3-9 3.5l-8.8.1-8.8-.1c-3.9-.2-6.9-1.3-9-3.5a13.2 13.2 0 0 1-3.5-9l-.1-8.8.1-8.8c.2-3.9 1.3-6.9 3.5-9C11 6.4 14 5.2 17.9 5l8.8-.1 8.8.1c3.9.2 6.9 1.3 9 3.5s3.3 5.1 3.5 9l.1 8.8zM28.8 8.7h-7.1l-2.7.1c-1.1 0-2.1.1-2.9.3l-2 .5c-.9.4-1.7.9-2.5 1.6-.7.7-1.2 1.5-1.6 2.5l-.5 2-.3 2.9-.1 2.7v10l.1 2.7c0 1.1.1 2.1.3 2.9l.5 2c.4.9.9 1.7 1.6 2.5.7.7 1.5 1.2 2.5 1.6l2 .5 2.9.3 2.7.1h10l2.7-.1c1.1 0 2.1-.1 2.9-.3l2-.5c.9-.4 1.7-.9 2.5-1.6.7-.7 1.2-1.5 1.6-2.5l.5-2 .3-2.9.1-2.7v-2.9-2.1-2.1-2.9l-.1-2.7c0-1.1-.1-2.1-.3-2.9l-.5-2c-.4-.9-.9-1.7-1.6-2.5a7.2 7.2 0 0 0-2.5-1.6l-2-.5-2.9-.3-2.7-.1h-2.9zm5.6 9.8c2.1 2.1 3.2 4.7 3.2 7.8s-1.1 5.6-3.2 7.8a10.6 10.6 0 0 1-7.8 3.2c-3.1 0-5.6-1.1-7.8-3.2-2.1-2.1-3.2-4.7-3.2-7.8s1.1-5.6 3.2-7.8c2.1-2.1 4.7-3.2 7.8-3.2 3.1 0 5.7 1 7.8 3.2zm-2.7 12.8a7.1 7.1 0 0 0 0-10.1 7 7 0 0 0-5.1-2.1c-2 0-3.7.7-5.1 2.1s-2.1 3.1-2.1 5.1.7 3.7 2.1 5a7 7 0 0 0 5.1 2.1 7 7 0 0 0 5.1-2.1zM39.9 13c.5.5.8 1.1.8 1.8s-.3 1.3-.8 1.8-1.1.8-1.8.8-1.3-.3-1.8-.8-.8-1.1-.8-1.8.3-1.3.8-1.8 1.1-.8 1.8-.8 1.3.3 1.8.8z"/>
</svg>
