<svg xmlns="http://www.w3.org/2000/svg" viewBox="0 0 466.8 595.2">
  <path fill="#2d2d2d" d="M59.8 573c-2.2-2.2-1-5.6-1.2-8.4 0-7.6 1-15.3.2-23-.7-4.6-4.3-8-6.4-12-3.5-6.2-7-12.5-11-18.3-2-2.5-2-6.4 1.2-7.9 3-2.3 5.7 1.5 7.4 3.6 5.3 7.1 9 15.4 14 22.8 5.4-7.6 9.9-15.8 15.2-23.5 1.5-2.7 5-5.1 7.8-2.6 3.2 2.2.6 6.3-.7 8.9-4.9 8.6-10.6 16.8-15.9 25.2-.6 1.3-1.8 2.4-1.4 3.9.1 9.3.6 18.6.4 28 .4 4-4.5 5.3-7.6 4.3-.7-.2-1.4-.5-2-1z"/>
  <path fill="#2d2d2d" d="M152 573.9c-4-.7-3.9-5.7-3.6-8.8 1-19.3.7-38.6 1.4-58 .1-3.6 4-3.8 6.8-3.8 7.6-.4 15.3 1 23 .7 4.1.1 8.4-.2 12.5 1 3.3 2.2 1.1 8.4-3 7.7-10-.2-20 .6-30 1.1l.5 19.8c7-.2 13.9-1 20.8-.5 4 1 4.3 7.9-.1 8.5-3.8.7-7.7.3-11.5.7l-9.8.6a95 95 0 0 0 0 20.7c.4 2.6 4.9.4 7 1 8.1-.2 16.3-.5 24.4-1.2 3.6.9 5 6.3 1.8 8.5-3.4 2.4-7.8 2.1-11.8 2.5-9.4.3-18.8.3-28.1-.5h-.4z"/>
  <path fill="#2d2d2d" d="M265.5 573.6c-9-2.7-18-8.6-21-18-1-4-.4-9.2 3.6-11.2 2.8-3.3 9.2-.6 8.5 3.8-1.5 2.8-4.4 7 0 9 7.5 7.5 19.3 8.8 29.2 6.4 6.3-1.5 12.7-4.9 15.6-10.9 1-4.5-3.6-7.3-6.8-9.4-6.4-3.5-14-3-21-3.6-6.4-.5-13.2-.5-19-3.5-3.5-2-6.3-6-5-10.1 2-7.7 8.5-13.3 15-17.2 9-5.2 20.2-6.5 30.3-4.3 4.4 1.2 9 4.2 9.9 8.9.9 4.3-5.2 8.2-7.8 4-2.3-2.4-5.3-5-8.9-4.3a36.6 36.6 0 0 0-27.5 10.8c-2.6 4.1 3.6 6.6 7 6 12.4 1.4 25.6 1.6 37 8 5.6 3.3 8.8 10.9 6.2 17.2-2.8 8.7-11.5 13.5-19.7 16.2-8.2 2.8-17 4-25.6 2.2z"/>
  <path fill="#2d2d2d" d="M417.6 574.1c-3.2-2.9-2.3-7.6-2.8-11.5-.4-12 .3-24.2-.3-36.2-2.9 4.4-4.2 9.6-6 14.4-3.5 9.6-6.1 19.5-10.8 28.5-2.5 3.2-7.8 2-8.5-2.1-5.3-10.5-9.5-21.6-13.8-32.6-.5 10-1.5 20.1.2 30.1.1 3.3 1.3 9.8-3.7 9.8-3.5.8-9.4 0-8.7-4.9 2-12.7 2.3-25.6 2.5-38.4 0-6.7.4-13.5-.7-20.2-.9-3.7 2.3-9.3 6.6-7.7 3.3 1.8 3.7 6 5.4 9 3.9 9.6 6.8 19.5 11.4 28.8a59 59 0 0 0 5 9.5c2.6-3.8 3.8-8.4 5.8-12.6 5-11.7 10.6-23.3 18-33.8 3.2-3.3 8.9-.5 7.7 4.2.5 10.2-.3 20.5.1 30.8.2 7.3.8 14.7 1.1 22 .4 4 1.7 8.5-.6 12.2-1.8 2.3-5.5 2.3-7.9.7z"/>
  <g transform="scale(1,-1) translate(0, -466.8)">
  <rect fill="#f8f10c" width="8" height="294" x="44.6" y="0" />
  <rect fill="#f8f10c" width="8" height="304" x="69.1" y="0" />
  <rect fill="#f8f10c" width="8" height="301" x="95.2" y="0" />
  <rect fill="#f8f10c" width="8" height="311" x="120.3" y="0" />
  <rect fill="#0ab10d" width="8" height="326" x="148.2" y="0" />
  <rect fill="#0ab10d" width="8" height="357" x="173.4" y="0" />
  <rect fill="#0ab10d" width="8" height="340" x="197.7" y="0" />
  <rect fill="#0ab10d" width="8" height="373" x="220.4" y="0" />
  <rect fill="#34bbf6" width="8" height="394" x="243.8" y="0" />
  <rect fill="#34bbf6" width="8" height="415" x="267.1" y="0" />
  <rect fill="#34bbf6" width="8" height="425" x="289.5" y="0" />
  <rect fill="#34bbf6" width="8" height="447" x="312.3" y="0" />
  <rect fill="#ee486f" width="8" height="409" x="335.9" y="0" />
  <rect fill="#ee486f" width="8" height="391" x="360.4" y="0" />
  <rect fill="#ee486f" width="8" height="197" x="383.2" y="0" />
  <rect fill="#ee486f" width="8" height="136" x="407.8" y="0" />
  </g>
</svg>
